STARTFONT 2.1
COMMENT
COMMENT Converted from OpenType font "..\ttf\ITC Avant Garde Gothic Medium.otf" by "otf2bdf.exe 3.0".
COMMENT
FONT -FreeType-ITC Avant Garde Gothic-Medium-R-Normal--37-270-100-100-P-181-ISO10646-1
SIZE 27 100 100
FONTBOUNDINGBOX 49 49 -4 -11
STARTPROPERTIES 19
FOUNDRY "FreeType"
FAMILY_NAME "ITC Avant Garde Gothic"
WEIGHT_NAME "Medium"
SLANT "R"
SETWIDTH_NAME "Normal"
ADD_STYLE_NAME ""
PIXEL_SIZE 37
POINT_SIZE 270
RESOLUTION_X 100
RESOLUTION_Y 100
SPACING "P"
AVERAGE_WIDTH 181
CHARSET_REGISTRY "ISO10646"
CHARSET_ENCODING "1"
FONT_ASCENT 37
FONT_DESCENT 9
COPYRIGHT "Copyright (c) 1991 Adobe Systems Incorporated.  All Rights Reserved.ITC Avant Garde Gothic is a registered trademark of International Typeface Corporation."
_OTF_FONTFILE "..\ttf\ITC Avant Garde Gothic Medium.otf"
_OTF_PSNAME "AvantGarde-Medium"
ENDPROPERTIES
CHARS 228
STARTCHAR 0020
ENCODING 32
SWIDTH 266 0
DWIDTH 10 0
BBX 0 0 0 0
BITMAP
ENDCHAR
STARTCHAR 0021
ENCODING 33
SWIDTH 266 0
DWIDTH 10 0
BBX 4 28 3 0
BITMAP
F0
F0
F0
F0
F0
F0
F0
F0
F0
F0
F0
F0
F0
F0
F0
F0
F0
F0
F0
F0
F0
00
00
F0
F0
F0
F0
F0
ENDCHAR
STARTCHAR 0022
ENCODING 34
SWIDTH 320 0
DWIDTH 12 0
BBX 10 11 1 16
BITMAP
F3C0
F3C0
F3C0
F3C0
F3C0
F3C0
F3C0
F3C0
F3C0
F3C0
F3C0
ENDCHAR
STARTCHAR 0023
ENCODING 35
SWIDTH 560 0
DWIDTH 21 0
BBX 19 28 1 0
BITMAP
03C780
038780
038780
038700
038700
078700
078700
078700
7FFFE0
7FFFE0
7FFFE0
7FFFE0
070E00
0F0E00
0F0E00
0E1E00
FFFFC0
FFFFC0
FFFFC0
FFFFC0
1E1C00
1E1C00
1E1C00
1C3C00
1C3C00
1C3C00
1C3800
3C3800
ENDCHAR
STARTCHAR 0024
ENCODING 36
SWIDTH 560 0
DWIDTH 21 0
BBX 15 35 3 -3
BITMAP
03C0
03C0
03C0
03C0
03C0
0FF8
1FFC
3FFC
3C3E
7C1E
781E
7800
7800
7C00
3E00
3FC0
1FF0
0FF8
01FC
007E
003E
001E
001E
F01E
F01E
F83E
7C3C
7FFC
3FF8
1FF0
03C0
03C0
03C0
03C0
03C0
ENDCHAR
STARTCHAR 0025
ENCODING 37
SWIDTH 826 0
DWIDTH 31 0
BBX 28 28 2 0
BITMAP
0FC00E00
3FF00C00
7FF81800
7CF81800
F87C3000
F03C3000
F03C6000
F03CE000
F87CC000
7FF9C000
3FF18000
1FE30000
0FC30000
00060000
000E1F00
000C7F80
001CFFC0
0019FFE0
0031E1E0
0033E1F0
0063C0F0
0063C0F0
00C3C0F0
01C3E1F0
0181F3E0
0380FFC0
03007F80
06003F00
ENDCHAR
STARTCHAR 0026
ENCODING 38
SWIDTH 693 0
DWIDTH 26 0
BBX 24 28 1 0
BITMAP
01F800
03FC00
07FF00
0FFF00
1F0F80
1E0780
1E0780
1E0780
1E0780
0F0F80
0FBF00
07FE1E
07FC3E
1FF83C
3FFC7C
7E7E78
783FF8
F81FF0
F00FF0
F007E0
F003F0
F003F8
F807FC
7C0FFE
3FFF3F
3FFE1F
0FFC0E
03F004
ENDCHAR
STARTCHAR 0027
ENCODING 39
SWIDTH 213 0
DWIDTH 8 0
BBX 4 11 2 16
BITMAP
F0
F0
F0
F0
F0
F0
F0
F0
F0
F0
F0
ENDCHAR
STARTCHAR 0028
ENCODING 40
SWIDTH 400 0
DWIDTH 15 0
BBX 11 38 2 -11
BITMAP
0020
0060
00E0
03E0
03E0
07C0
0F80
1F00
1F00
3E00
3C00
7C00
7800
7800
7800
F000
F000
F000
F000
F000
F000
F000
F000
F800
7800
7800
7C00
3C00
3E00
1E00
1F00
0F80
07C0
07E0
03E0
01E0
00E0
0020
ENDCHAR
STARTCHAR 0029
ENCODING 41
SWIDTH 400 0
DWIDTH 15 0
BBX 11 37 2 -9
BITMAP
C000
E000
F000
F800
FC00
7E00
3E00
1F00
0F80
0F80
0780
03C0
03C0
03C0
01E0
01E0
01E0
01E0
01E0
01E0
01E0
01E0
01E0
03C0
03C0
03C0
07C0
0780
0F80
1F00
3F00
7E00
FC00
F800
F000
E000
C000
ENDCHAR
STARTCHAR 002A
ENCODING 42
SWIDTH 560 0
DWIDTH 21 0
BBX 14 13 4 14
BITMAP
0380
0380
0380
0380
6398
FFFC
7FF8
0FC0
0780
0EC0
1CE0
3C70
3870
ENDCHAR
STARTCHAR 002B
ENCODING 43
SWIDTH 613 0
DWIDTH 23 0
BBX 20 20 1 0
BITMAP
00F000
00F000
00F000
00F000
00F000
00F000
00F000
00F000
FFFFF0
FFFFF0
FFFFF0
FFFFF0
00F000
00F000
00F000
00F000
00F000
00F000
00F000
00F000
ENDCHAR
STARTCHAR 002C
ENCODING 44
SWIDTH 266 0
DWIDTH 10 0
BBX 4 10 3 -5
BITMAP
F0
F0
F0
F0
F0
70
70
E0
E0
80
ENDCHAR
STARTCHAR 002D
ENCODING 45
SWIDTH 293 0
DWIDTH 11 0
BBX 11 4 0 9
BITMAP
FFE0
FFE0
FFE0
FFE0
ENDCHAR
STARTCHAR 002E
ENCODING 46
SWIDTH 266 0
DWIDTH 10 0
BBX 4 5 3 0
BITMAP
F0
F0
F0
F0
F0
ENDCHAR
STARTCHAR 002F
ENCODING 47
SWIDTH 506 0
DWIDTH 19 0
BBX 15 32 2 -4
BITMAP
001E
003C
003C
003C
0078
0078
0078
00F0
00F0
01F0
01E0
01E0
03E0
03C0
03C0
07C0
0780
0780
0F80
0F00
0F00
1F00
1E00
1E00
3E00
3C00
3C00
7C00
7800
7800
F800
F000
ENDCHAR
STARTCHAR 0030
ENCODING 48
SWIDTH 560 0
DWIDTH 21 0
BBX 18 28 1 0
BITMAP
03F000
0FFC00
1FFE00
3FFF00
7C0F80
780780
F003C0
F003C0
F003C0
F003C0
F003C0
F003C0
F003C0
F003C0
F003C0
F003C0
F003C0
F003C0
F003C0
F003C0
F003C0
F003C0
780780
7C0F80
3FFF00
1FFE00
0FFC00
03F000
ENDCHAR
STARTCHAR 0031
ENCODING 49
SWIDTH 560 0
DWIDTH 21 0
BBX 8 28 6 0
BITMAP
FF
FF
FF
FF
0F
0F
0F
0F
0F
0F
0F
0F
0F
0F
0F
0F
0F
0F
0F
0F
0F
0F
0F
0F
0F
0F
0F
0F
ENDCHAR
STARTCHAR 0032
ENCODING 50
SWIDTH 560 0
DWIDTH 21 0
BBX 18 28 1 0
BITMAP
03F000
0FFC00
1FFE00
3FFF00
7C0F80
780780
7807C0
F003C0
F003C0
F003C0
0003C0
0007C0
000780
000F80
001F00
003E00
007C00
00F800
03F000
07E000
0FC000
1F8000
3F0000
7E0000
FFFFC0
FFFFC0
FFFFC0
FFFFC0
ENDCHAR
STARTCHAR 0033
ENCODING 51
SWIDTH 560 0
DWIDTH 21 0
BBX 18 28 1 0
BITMAP
01F000
07FC00
0FFE00
1FFF00
3C0F80
3C0780
380780
000780
000780
000F80
001F00
01FF00
01FE00
01FE00
01FF00
001F80
000780
0007C0
0003C0
0003C0
F003C0
F003C0
7807C0
7C0F80
3FFF80
1FFF00
0FFC00
03F000
ENDCHAR
STARTCHAR 0034
ENCODING 52
SWIDTH 560 0
DWIDTH 21 0
BBX 20 28 0 0
BITMAP
000780
000F80
001F80
001F80
003F80
007F80
007F80
00FF80
00F780
01E780
03E780
03C780
078780
0F8780
0F0780
1F0780
3E0780
3C0780
7C0780
780780
FFFFF0
FFFFF0
FFFFF0
FFFFF0
000780
000780
000780
000780
ENDCHAR
STARTCHAR 0035
ENCODING 53
SWIDTH 560 0
DWIDTH 21 0
BBX 19 28 1 0
BITMAP
0FFF00
1FFF00
1FFF00
1FFF00
1E0000
1C0000
1C0000
3C0000
3DF800
3FFE00
3FFF00
3FFF80
3E0FC0
7C07C0
1803C0
0003E0
0001E0
0001E0
0001E0
F001E0
F001E0
7803C0
7803C0
7E0FC0
3FFF80
1FFF00
0FFE00
03F000
ENDCHAR
STARTCHAR 0036
ENCODING 54
SWIDTH 560 0
DWIDTH 21 0
BBX 19 28 1 0
BITMAP
007C00
007800
00F800
00F000
01E000
03E000
03C000
07C000
0F8000
0FF800
1FFE00
1FFF00
3FFF80
7E0FC0
7C07C0
7803E0
F001E0
F001E0
F001E0
F001E0
F001E0
F803E0
7803C0
7E07C0
3FFF80
1FFF00
0FFE00
03F800
ENDCHAR
STARTCHAR 0037
ENCODING 55
SWIDTH 560 0
DWIDTH 21 0
BBX 16 28 3 0
BITMAP
FFFF
FFFF
FFFF
FFFF
000F
001E
001E
003C
003C
007C
0078
0078
00F0
00F0
01E0
01E0
03E0
03C0
03C0
0780
0780
0F80
0F00
1F00
1E00
1E00
3E00
3C00
ENDCHAR
STARTCHAR 0038
ENCODING 56
SWIDTH 560 0
DWIDTH 21 0
BBX 17 28 2 0
BITMAP
03E000
0FF800
1FFC00
3FFE00
3C1E00
780F00
780F00
780F00
780F00
7C1F00
3E3E00
3FFE00
1FFC00
1FFC00
3FFE00
7E3F00
780F00
F80F80
F00780
F00780
F00780
F00780
F80F00
7C1F00
3FFE00
3FFC00
0FF800
03E000
ENDCHAR
STARTCHAR 0039
ENCODING 57
SWIDTH 560 0
DWIDTH 21 0
BBX 19 28 1 0
BITMAP
03F800
0FFE00
1FFF00
3FFF80
7C0FC0
7803C0
7803E0
F001E0
F001E0
F001E0
F001E0
F801E0
F803C0
7C07C0
7E0FC0
3FFF80
1FFF00
0FFF00
03FE00
003E00
007C00
007800
00F800
00F000
01E000
03E000
03C000
07C000
ENDCHAR
STARTCHAR 003A
ENCODING 58
SWIDTH 266 0
DWIDTH 10 0
BBX 4 21 3 0
BITMAP
F0
F0
F0
F0
00
00
00
00
00
00
00
00
00
00
00
00
F0
F0
F0
F0
F0
ENDCHAR
STARTCHAR 003B
ENCODING 59
SWIDTH 266 0
DWIDTH 10 0
BBX 4 26 3 -5
BITMAP
F0
F0
F0
F0
00
00
00
00
00
00
00
00
00
00
00
00
F0
F0
F0
F0
F0
70
70
E0
E0
80
ENDCHAR
STARTCHAR 003C
ENCODING 60
SWIDTH 613 0
DWIDTH 23 0
BBX 19 19 2 0
BITMAP
000060
0003E0
000FE0
003FE0
00FF00
07FC00
1FF000
7F8000
FE0000
F80000
FF0000
7FC000
1FF000
03FE00
00FF80
003FE0
0007E0
0001E0
000060
ENDCHAR
STARTCHAR 003D
ENCODING 61
SWIDTH 613 0
DWIDTH 23 0
BBX 19 13 2 3
BITMAP
FFFFE0
FFFFE0
FFFFE0
FFFFE0
000000
000000
000000
000000
000000
FFFFE0
FFFFE0
FFFFE0
FFFFE0
ENDCHAR
STARTCHAR 003E
ENCODING 62
SWIDTH 613 0
DWIDTH 23 0
BBX 19 20 2 0
BITMAP
800000
E00000
F80000
FF0000
7FC000
1FF000
03FC00
00FF80
003FE0
0007E0
0007E0
001FE0
00FF80
03FE00
0FF800
7FC000
FF0000
FC0000
E00000
800000
ENDCHAR
STARTCHAR 003F
ENCODING 63
SWIDTH 506 0
DWIDTH 19 0
BBX 17 28 1 0
BITMAP
07E000
1FF800
3FFC00
7FFE00
7C3F00
F80F00
F00F80
F00780
000780
000780
000F80
001F00
003F00
007E00
00FC00
00F800
01F000
01E000
03E000
03C000
03C000
000000
000000
03C000
03C000
03C000
03C000
03C000
ENDCHAR
STARTCHAR 0040
ENCODING 64
SWIDTH 773 0
DWIDTH 29 0
BBX 28 28 0 0
BITMAP
001FE000
00FFFC00
03FFFE00
07E01F80
0F0007C0
1E0003C0
3C0001E0
380F80E0
703FDCF0
707FFC70
F0F07870
E0E03870
E1E03870
E1C03870
E1C03870
E1C03870
E1C070E0
F1E070E0
70E0F1C0
70FFFFC0
787FBF80
3C3F1E00
1E000000
0F000080
07E00780
03FFFF80
00FFFE00
001FF000
ENDCHAR
STARTCHAR 0041
ENCODING 65
SWIDTH 693 0
DWIDTH 26 0
BBX 25 28 0 0
BITMAP
003E0000
003E0000
003E0000
007F0000
007F0000
00770000
00F78000
00F78000
01E3C000
01E3C000
01E3C000
03C1E000
03C1E000
03C1E000
0780F000
0780F000
0FFFF800
0FFFF800
0FFFF800
1FFFFC00
1E003C00
3E003E00
3C003E00
3C001E00
7C001F00
78000F00
78000F00
F8000F80
ENDCHAR
STARTCHAR 0042
ENCODING 66
SWIDTH 586 0
DWIDTH 22 0
BBX 18 28 3 0
BITMAP
FFE000
FFF800
FFFC00
FFFE00
F03E00
F01F00
F00F00
F00F00
F00F00
F01F00
F03E00
FFFE00
FFFC00
FFFE00
FFFF00
F01F80
F00780
F007C0
F003C0
F003C0
F003C0
F003C0
F007C0
F00F80
FFFF80
FFFF00
FFFC00
FFF000
ENDCHAR
STARTCHAR 0043
ENCODING 67
SWIDTH 773 0
DWIDTH 29 0
BBX 26 28 1 0
BITMAP
001FC000
00FFF800
03FFFE00
07FFFF00
0FC03F80
1F000FC0
3E0007C0
3C000000
7C000000
78000000
F8000000
F0000000
F0000000
F0000000
F0000000
F0000000
F0000000
F8000000
78000000
7C000000
3C000000
3E0007C0
1F800FC0
0FE03F80
07FFFF00
03FFFC00
00FFF800
003FC000
ENDCHAR
STARTCHAR 0044
ENCODING 68
SWIDTH 720 0
DWIDTH 27 0
BBX 24 28 2 0
BITMAP
FFFC00
FFFF80
FFFFC0
FFFFF0
F003F8
F000F8
F0007C
F0003C
F0003E
F0001E
F0001F
F0000F
F0000F
F0000F
F0000F
F0000F
F0000F
F0000F
F0001E
F0001E
F0003E
F0007C
F000FC
F003F8
FFFFF0
FFFFC0
FFFF80
FFFC00
ENDCHAR
STARTCHAR 0045
ENCODING 69
SWIDTH 533 0
DWIDTH 20 0
BBX 15 28 2 0
BITMAP
FFFE
FFFE
FFFE
FFFE
F000
F000
F000
F000
F000
F000
F000
F000
FFFE
FFFE
FFFE
FFFE
F000
F000
F000
F000
F000
F000
F000
F000
FFFE
FFFE
FFFE
FFFE
ENDCHAR
STARTCHAR 0046
ENCODING 70
SWIDTH 480 0
DWIDTH 18 0
BBX 14 28 2 0
BITMAP
FFFC
FFFC
FFFC
FFFC
F000
F000
F000
F000
F000
F000
F000
F000
FFFC
FFFC
FFFC
FFFC
F000
F000
F000
F000
F000
F000
F000
F000
F000
F000
F000
F000
ENDCHAR
STARTCHAR 0047
ENCODING 71
SWIDTH 826 0
DWIDTH 31 0
BBX 28 28 1 0
BITMAP
003FC000
00FFF800
03FFFC00
07FFFF00
0FC03F80
1F800FC0
3E0007C0
3C000000
7C000000
78000000
F8000000
F0000000
F0000000
F0000000
F01FFFF0
F01FFFF0
F01FFFF0
F81FFFF0
780000F0
7C0001E0
3C0003E0
3E0003C0
1F800FC0
0FE03F80
07FFFF00
03FFFC00
00FFF800
003FC000
ENDCHAR
STARTCHAR 0048
ENCODING 72
SWIDTH 666 0
DWIDTH 25 0
BBX 19 28 3 0
BITMAP
F001E0
F001E0
F001E0
F001E0
F001E0
F001E0
F001E0
F001E0
F001E0
F001E0
F001E0
F001E0
FFFFE0
FFFFE0
FFFFE0
FFFFE0
F001E0
F001E0
F001E0
F001E0
F001E0
F001E0
F001E0
F001E0
F001E0
F001E0
F001E0
F001E0
ENDCHAR
STARTCHAR 0049
ENCODING 73
SWIDTH 266 0
DWIDTH 10 0
BBX 4 28 3 0
BITMAP
F0
F0
F0
F0
F0
F0
F0
F0
F0
F0
F0
F0
F0
F0
F0
F0
F0
F0
F0
F0
F0
F0
F0
F0
F0
F0
F0
F0
ENDCHAR
STARTCHAR 004A
ENCODING 74
SWIDTH 480 0
DWIDTH 18 0
BBX 15 28 0 0
BITMAP
001E
001E
001E
001E
001E
001E
001E
001E
001E
001E
001E
001E
001E
001E
001E
001E
001E
001E
001E
001E
001E
001E
F01E
F83C
7FFC
7FF8
1FF0
07C0
ENDCHAR
STARTCHAR 004B
ENCODING 75
SWIDTH 613 0
DWIDTH 23 0
BBX 19 28 3 0
BITMAP
F003E0
F007C0
F007C0
F00F80
F01F00
F03E00
F03E00
F07C00
F0F800
F1F000
F1E000
F3E000
F7C000
FF8000
F78000
F7C000
F3E000
F1F000
F0F000
F0F800
F07C00
F03E00
F03E00
F01F00
F00F80
F007C0
F007C0
F003E0
ENDCHAR
STARTCHAR 004C
ENCODING 76
SWIDTH 453 0
DWIDTH 17 0
BBX 14 28 3 0
BITMAP
F000
F000
F000
F000
F000
F000
F000
F000
F000
F000
F000
F000
F000
F000
F000
F000
F000
F000
F000
F000
F000
F000
F000
F000
FFFC
FFFC
FFFC
FFFC
ENDCHAR
STARTCHAR 004D
ENCODING 77
SWIDTH 933 0
DWIDTH 35 0
BBX 29 28 3 0
BITMAP
FC0001F8
FE0003F8
FE0003F8
FF0007F8
FF0007F8
FF000778
F7800F78
F7800F78
F3C01E78
F3C01E78
F3C01C78
F1E03C78
F1E03C78
F0E03878
F0F07878
F0F07878
F078F078
F078F078
F038E078
F03DE078
F03DE078
F01FC078
F01FC078
F00F8078
F00F8078
F00F8078
F0070078
F0070078
ENDCHAR
STARTCHAR 004E
ENCODING 78
SWIDTH 746 0
DWIDTH 28 0
BBX 22 28 3 0
BITMAP
F8003C
F8003C
FC003C
FE003C
FE003C
FF003C
FF803C
F7803C
F7C03C
F3C03C
F1E03C
F1F03C
F0F03C
F0783C
F07C3C
F03C3C
F01E3C
F01F3C
F00F3C
F00FBC
F007BC
F003FC
F003FC
F001FC
F000FC
F000FC
F0007C
F0007C
ENDCHAR
STARTCHAR 004F
ENCODING 79
SWIDTH 853 0
DWIDTH 32 0
BBX 29 28 1 0
BITMAP
001FC000
00FFF800
03FFFE00
07FFFF00
0FC03F80
1F800FC0
3E0003E0
3C0001E0
7C0001F0
780000F0
780000F8
F0000078
F0000078
F0000078
F0000078
F0000078
F0000078
F80000F8
780000F0
7C0001F0
3C0001E0
3E0003E0
1F8007C0
0FC01F80
07FFFF00
03FFFE00
00FFF800
001FC000
ENDCHAR
STARTCHAR 0050
ENCODING 80
SWIDTH 560 0
DWIDTH 21 0
BBX 18 28 2 0
BITMAP
FFF000
FFFC00
FFFF00
FFFF80
F00F80
F007C0
F003C0
F003C0
F003C0
F003C0
F003C0
F007C0
F00F80
FFFF80
FFFF00
FFFC00
FFF000
F00000
F00000
F00000
F00000
F00000
F00000
F00000
F00000
F00000
F00000
F00000
ENDCHAR
STARTCHAR 0051
ENCODING 81
SWIDTH 826 0
DWIDTH 31 0
BBX 30 28 1 0
BITMAP
001FC000
00FFF800
03FFFE00
07FFFF00
0FE03F80
1F800FC0
3E0003E0
3C0001E0
7C0001F0
780000F0
F80000F8
F0000078
F0000078
F0000078
F0000078
F0000078
F3FC0078
FFFF00F8
7FFFC0F0
7FFFF0F0
3C07F9E0
3E00FFE0
1F803FC0
0FE03FC0
07FFFFFC
03FFFFFC
00FFF8FC
001FC03C
ENDCHAR
STARTCHAR 0052
ENCODING 82
SWIDTH 586 0
DWIDTH 22 0
BBX 19 28 2 0
BITMAP
FFF800
FFFE00
FFFF80
FFFF80
F00FC0
F003C0
F003E0
F001E0
F001E0
F001E0
F001E0
F003E0
F007C0
F01FC0
FFFF80
FFFF00
F7FE00
F3E000
F1F000
F1F000
F0F800
F07C00
F03E00
F03E00
F01F00
F00F80
F007C0
F007C0
ENDCHAR
STARTCHAR 0053
ENCODING 83
SWIDTH 506 0
DWIDTH 19 0
BBX 17 28 1 0
BITMAP
03E000
0FF800
1FFC00
3FFE00
3C1E00
7C0F00
780F00
780F00
780000
7C0000
3E0000
3FC000
1FF800
0FFC00
03FE00
007F00
001F80
000F80
000780
F00780
F00780
F00780
F80F80
7C1F00
7FFF00
3FFE00
1FFC00
07E000
ENDCHAR
STARTCHAR 0054
ENCODING 84
SWIDTH 400 0
DWIDTH 15 0
BBX 14 28 1 0
BITMAP
FFFC
FFFC
FFFC
FFFC
0780
0780
0780
0780
0780
0780
0780
0780
0780
0780
0780
0780
0780
0780
0780
0780
0780
0780
0780
0780
0780
0780
0780
0780
ENDCHAR
STARTCHAR 0055
ENCODING 85
SWIDTH 640 0
DWIDTH 24 0
BBX 18 28 3 0
BITMAP
F003C0
F003C0
F003C0
F003C0
F003C0
F003C0
F003C0
F003C0
F003C0
F003C0
F003C0
F003C0
F003C0
F003C0
F003C0
F003C0
F003C0
F003C0
F003C0
F003C0
F003C0
F807C0
780780
7C0F80
3FFF00
1FFE00
0FFC00
03F000
ENDCHAR
STARTCHAR 0056
ENCODING 86
SWIDTH 693 0
DWIDTH 26 0
BBX 25 28 0 0
BITMAP
F8000F80
78000F00
78000F00
7C001F00
3C001E00
3E001E00
1E003C00
1E003C00
1F007C00
0F007800
0F007800
0780F000
0780F000
07C1F000
03C1E000
03C1E000
01E3C000
01E3C000
01F3C000
00F78000
00F78000
007F0000
007F0000
007F0000
003E0000
003E0000
001C0000
001C0000
ENDCHAR
STARTCHAR 0057
ENCODING 87
SWIDTH 906 0
DWIDTH 34 0
BBX 33 28 1 0
BITMAP
F001C00780
F801C00F80
7803E00F00
7803E00F00
7803E00F00
3C03E01E00
3C07F01E00
3C07F01E00
3C07701E00
1E07703C00
1E0F783C00
1E0F783C00
1E0E383C00
0F0E387800
0F1E3C7800
0F1E3C7800
071C1C7000
079C1CF000
07BC1EF000
07BC1EF000
03B80EE000
03F80FE000
03F80FE000
01F80FC000
01F007C000
01F007C000
01F007C000
00F0078000
ENDCHAR
STARTCHAR 0058
ENCODING 88
SWIDTH 640 0
DWIDTH 24 0
BBX 23 28 0 0
BITMAP
F8003E
7C007C
3C0078
3E00F8
1F01F0
0F01E0
0F83E0
07C7C0
07C780
03EF80
01EF00
01FF00
00FE00
007C00
007C00
00FE00
01FF00
01EF00
03EF80
07C780
0787C0
0F83E0
0F01E0
1F01F0
3E00F8
3C0078
7C007C
F8003E
ENDCHAR
STARTCHAR 0059
ENCODING 89
SWIDTH 586 0
DWIDTH 22 0
BBX 20 28 1 0
BITMAP
F000F0
F801F0
7801E0
7C03E0
3C03C0
3C03C0
3E0780
1E0780
1F0F00
0F0F00
0F9F00
079E00
07FE00
03FC00
03FC00
01F800
01F800
00F000
00F000
00F000
00F000
00F000
00F000
00F000
00F000
00F000
00F000
00F000
ENDCHAR
STARTCHAR 005A
ENCODING 90
SWIDTH 453 0
DWIDTH 17 0
BBX 17 28 0 0
BITMAP
7FFF80
7FFF80
7FFF80
7FFF80
000F00
001E00
003E00
003C00
007C00
007800
00F800
01F000
01E000
03E000
03C000
07C000
078000
0F8000
1F0000
1E0000
3E0000
3C0000
7C0000
F80000
FFFF80
FFFF80
FFFF80
FFFF80
ENDCHAR
STARTCHAR 005B
ENCODING 91
SWIDTH 400 0
DWIDTH 15 0
BBX 8 38 5 -11
BITMAP
01
07
0F
1F
3F
7C
78
F8
F0
F0
F0
F0
F0
F0
F0
F0
F0
F0
F0
F0
F0
F0
F0
F0
F0
F0
F0
F0
F0
F0
F8
78
7C
3E
3F
1F
0F
03
ENDCHAR
STARTCHAR 005C
ENCODING 92
SWIDTH 506 0
DWIDTH 19 0
BBX 15 32 2 -4
BITMAP
F000
F800
7800
7800
7C00
3C00
3C00
3E00
1E00
1E00
1F00
0F00
0F00
0F80
0780
0780
03C0
03C0
03C0
01E0
01E0
01F0
00F0
00F0
00F8
0078
0078
007C
003C
003C
003E
001E
ENDCHAR
STARTCHAR 005D
ENCODING 93
SWIDTH 400 0
DWIDTH 15 0
BBX 8 38 3 -11
BITMAP
C0
E0
F8
F8
FC
3E
1E
1F
0F
0F
0F
0F
0F
0F
0F
0F
0F
0F
0F
0F
0F
0F
0F
0F
0F
0F
0F
0F
0F
0F
1F
1E
3E
7C
FC
F8
F0
C0
ENDCHAR
STARTCHAR 005E
ENCODING 94
SWIDTH 613 0
DWIDTH 23 0
BBX 18 15 2 13
BITMAP
01E000
01F000
03F000
03F800
07F800
07BC00
0F3C00
0F1E00
1E1E00
1E0F00
3C0F00
3C0780
780780
780380
F003C0
ENDCHAR
STARTCHAR 005F
ENCODING 95
SWIDTH 506 0
DWIDTH 19 0
BBX 19 2 0 -5
BITMAP
FFFFE0
FFFFE0
ENDCHAR
STARTCHAR 0060
ENCODING 96
SWIDTH 560 0
DWIDTH 21 0
BBX 10 8 5 23
BITMAP
4000
7000
FC00
7F00
1F80
0FC0
0380
0080
ENDCHAR
STARTCHAR 0061
ENCODING 97
SWIDTH 693 0
DWIDTH 26 0
BBX 23 21 1 0
BITMAP
00FE1E
07FF9E
0FFFDE
1FFFFE
3F01FE
7C007E
78003E
78003E
F0001E
F0001E
F0001E
F0001E
F0001E
F8003E
78003E
7C007E
3F01FE
1FFFFE
0FFFDE
07FF9E
00FE1E
ENDCHAR
STARTCHAR 0062
ENCODING 98
SWIDTH 693 0
DWIDTH 26 0
BBX 21 28 3 0
BITMAP
F00000
F00000
F00000
F00000
F00000
F00000
F00000
F0FC00
F3FF00
F7FF80
FFFFC0
FE03E0
FC01F0
F800F0
F800F8
F00078
F00078
F00078
F00078
F00078
F800F8
F800F0
FC01F0
FE03E0
FFFFC0
F7FF80
F3FF00
F0FC00
ENDCHAR
STARTCHAR 0063
ENCODING 99
SWIDTH 640 0
DWIDTH 24 0
BBX 21 21 1 0
BITMAP
01FC00
07FF00
0FFFC0
1FFFE0
3E03F0
7C01F0
7800F8
F80000
F00000
F00000
F00000
F00000
F00000
F80000
7800F8
7C00F0
3E03F0
1FFFE0
0FFFC0
07FF00
01FC00
ENDCHAR
STARTCHAR 0064
ENCODING 100
SWIDTH 693 0
DWIDTH 26 0
BBX 22 28 1 0
BITMAP
00003C
00003C
00003C
00003C
00003C
00003C
00003C
01FC3C
07FF3C
0FFFBC
1FFFFC
3E01FC
7C00FC
78007C
F8007C
F0003C
F0003C
F0003C
F0003C
F0003C
F8007C
78007C
7C00FC
3F01FC
1FFFFC
0FFFBC
07FF3C
01FC3C
ENDCHAR
STARTCHAR 0065
ENCODING 101
SWIDTH 640 0
DWIDTH 24 0
BBX 22 21 1 0
BITMAP
00FE00
07FF80
0FFFE0
1FFFF0
3E01F0
780078
70003C
F0003C
FFFFFC
FFFFFC
FFFFFC
FFFFFC
F00000
780000
780078
3C00F8
3F01F0
1FFFE0
0FFFC0
03FF80
00FC00
ENDCHAR
STARTCHAR 0066
ENCODING 102
SWIDTH 266 0
DWIDTH 10 0
BBX 10 28 1 0
BITMAP
03C0
0FC0
1FC0
1FC0
3E00
3C00
3C00
FFC0
FFC0
FFC0
FFC0
3C00
3C00
3C00
3C00
3C00
3C00
3C00
3C00
3C00
3C00
3C00
3C00
3C00
3C00
3C00
3C00
3C00
ENDCHAR
STARTCHAR 0067
ENCODING 103
SWIDTH 693 0
DWIDTH 26 0
BBX 23 29 1 -8
BITMAP
00FE1E
03FF9E
0FFFFE
1FFFFE
3F01FE
7C007E
78003E
78003E
F0001E
F0001E
F0001E
F0001E
F0001E
78003E
78003E
3C007E
3F01FE
1FFFFE
0FFFDE
03FF9E
00FE1E
00003E
7C003C
7E007C
3F81F8
1FFFF0
0FFFE0
07FFC0
00FE00
ENDCHAR
STARTCHAR 0068
ENCODING 104
SWIDTH 613 0
DWIDTH 23 0
BBX 19 28 2 0
BITMAP
F00000
F00000
F00000
F00000
F00000
F00000
F00000
F1F800
F7FF00
FFFF80
FFFFC0
FC07C0
F803E0
F803E0
F001E0
F001E0
F001E0
F001E0
F001E0
F001E0
F001E0
F001E0
F001E0
F001E0
F001E0
F001E0
F001E0
F001E0
ENDCHAR
STARTCHAR 0069
ENCODING 105
SWIDTH 240 0
DWIDTH 9 0
BBX 4 28 3 0
BITMAP
F0
F0
F0
F0
F0
00
00
F0
F0
F0
F0
F0
F0
F0
F0
F0
F0
F0
F0
F0
F0
F0
F0
F0
F0
F0
F0
F0
ENDCHAR
STARTCHAR 006A
ENCODING 106
SWIDTH 240 0
DWIDTH 9 0
BBX 7 36 0 -9
BITMAP
1E
1E
1E
1E
1E
00
00
1E
1E
1E
1E
1E
1E
1E
1E
1E
1E
1E
1E
1E
1E
1E
1E
1E
1E
1E
1E
1E
1E
1E
1E
3E
FC
FC
F8
E0
ENDCHAR
STARTCHAR 006B
ENCODING 107
SWIDTH 533 0
DWIDTH 20 0
BBX 17 28 3 0
BITMAP
F00000
F00000
F00000
F00000
F00000
F00000
F00000
F01F00
F03E00
F03C00
F07800
F0F800
F1F000
F1E000
F3C000
F7C000
FF8000
FF8000
F7C000
F3E000
F1E000
F1F000
F0F800
F07C00
F03E00
F03E00
F01F00
F00F80
ENDCHAR
STARTCHAR 006C
ENCODING 108
SWIDTH 240 0
DWIDTH 9 0
BBX 4 28 3 0
BITMAP
F0
F0
F0
F0
F0
F0
F0
F0
F0
F0
F0
F0
F0
F0
F0
F0
F0
F0
F0
F0
F0
F0
F0
F0
F0
F0
F0
F0
ENDCHAR
STARTCHAR 006D
ENCODING 109
SWIDTH 960 0
DWIDTH 36 0
BBX 31 21 3 0
BITMAP
F3F01FC0
F7FC7FF0
FFFEFFF8
FFFFFFFC
FC1FE07C
F80FC03E
F007801E
F007801E
F007801E
F007801E
F007801E
F007801E
F007801E
F007801E
F007801E
F007801E
F007801E
F007801E
F007801E
F007801E
F007801E
ENDCHAR
STARTCHAR 006E
ENCODING 110
SWIDTH 613 0
DWIDTH 23 0
BBX 19 21 2 0
BITMAP
F1F800
F7FF00
FFFF80
FFFFC0
FC07C0
F803E0
F803E0
F001E0
F001E0
F001E0
F001E0
F001E0
F001E0
F001E0
F001E0
F001E0
F001E0
F001E0
F001E0
F001E0
F001E0
ENDCHAR
STARTCHAR 006F
ENCODING 111
SWIDTH 666 0
DWIDTH 25 0
BBX 23 21 1 0
BITMAP
00FE00
03FFC0
0FFFE0
1FFFF0
3F01F8
7C007C
78003C
F8003E
F0001E
F0001E
F0001E
F0001E
F0001E
78003C
78003C
7C007C
3F01F8
1FFFF0
0FFFE0
03FF80
00FE00
ENDCHAR
STARTCHAR 0070
ENCODING 112
SWIDTH 693 0
DWIDTH 26 0
BBX 21 28 3 -7
BITMAP
F0FC00
F3FF00
F7FFC0
FFFFC0
FE03E0
FC01F0
F800F0
F800F8
F00078
F00078
F00078
F00078
F00078
F800F8
F800F0
FC01F0
FE03E0
FFFFE0
F7FFC0
F3FF00
F0FC00
F00000
F00000
F00000
F00000
F00000
F00000
F00000
ENDCHAR
STARTCHAR 0071
ENCODING 113
SWIDTH 693 0
DWIDTH 26 0
BBX 22 28 1 -7
BITMAP
00FC3C
07FF3C
0FFFBC
1FFFFC
3E01FC
7C00FC
78007C
F8007C
F0003C
F0003C
F0003C
F0003C
F0003C
F8007C
78007C
7C00FC
3F01FC
1FFFFC
0FFFBC
07FF3C
01FC3C
00003C
00003C
00003C
00003C
00003C
00003C
00003C
ENDCHAR
STARTCHAR 0072
ENCODING 114
SWIDTH 320 0
DWIDTH 12 0
BBX 9 21 3 0
BITMAP
F380
F780
FF80
FF80
FE00
F800
F800
F000
F000
F000
F000
F000
F000
F000
F000
F000
F000
F000
F000
F000
F000
ENDCHAR
STARTCHAR 0073
ENCODING 115
SWIDTH 426 0
DWIDTH 16 0
BBX 15 21 1 0
BITMAP
07C0
1FF0
3FF8
3FFC
783C
783C
7800
7C00
3FC0
3FF0
0FF8
03FC
007E
001E
F01E
F01E
F83E
7FFC
3FFC
1FF8
07E0
ENDCHAR
STARTCHAR 0074
ENCODING 116
SWIDTH 266 0
DWIDTH 10 0
BBX 10 28 0 0
BITMAP
1E00
1E00
1E00
1E00
1E00
1E00
1E00
FFC0
FFC0
FFC0
FFC0
1E00
1E00
1E00
1E00
1E00
1E00
1E00
1E00
1E00
1E00
1E00
1E00
1E00
1E00
1E00
1E00
1E00
ENDCHAR
STARTCHAR 0075
ENCODING 117
SWIDTH 613 0
DWIDTH 23 0
BBX 19 21 2 0
BITMAP
F001E0
F001E0
F001E0
F001E0
F001E0
F001E0
F001E0
F001E0
F001E0
F001E0
F001E0
F001E0
F001E0
F001E0
F803E0
7803E0
7C07E0
3FFFE0
3FFFE0
0FFDE0
03F1E0
ENDCHAR
STARTCHAR 0076
ENCODING 118
SWIDTH 533 0
DWIDTH 20 0
BBX 19 21 0 0
BITMAP
F001E0
7803C0
7803C0
7803C0
3C0780
3C0780
1C0700
1E0F00
1E0F00
0F0E00
0F1E00
0F1E00
07BC00
07BC00
03B800
03F800
03F800
01F000
01F000
00E000
00E000
ENDCHAR
STARTCHAR 0077
ENCODING 119
SWIDTH 800 0
DWIDTH 30 0
BBX 29 21 0 0
BITMAP
F0070078
780700F0
780F80F0
780F80F0
3C0F81E0
3C1FC1E0
3C1FC1E0
1E1DC3C0
1E1DE3C0
0E3DE3C0
0F38E780
0F38E780
0778F700
07F07F00
07F07F00
03F07E00
03E03E00
03E03E00
01E03C00
01C01C00
00C01800
ENDCHAR
STARTCHAR 0078
ENCODING 120
SWIDTH 506 0
DWIDTH 19 0
BBX 19 21 0 0
BITMAP
7803C0
7C07C0
3E0F80
1E0F00
1F1F00
0FBE00
07BC00
07FC00
03F800
01F000
01F000
03F800
03F800
07FC00
0FBE00
0F1E00
1E1F00
3E0F80
3C0780
7807C0
F803E0
ENDCHAR
STARTCHAR 0079
ENCODING 121
SWIDTH 586 0
DWIDTH 22 0
BBX 21 28 0 -7
BITMAP
F00078
7800F0
7800F0
7C01F0
3C01E0
3C01E0
1E03C0
1E03C0
1E0780
0F0780
0F0780
078F00
078F00
078E00
03DE00
03DE00
01FC00
01FC00
00F800
00F800
00F800
00F000
00F000
01E000
01E000
03C000
03C000
03C000
ENDCHAR
STARTCHAR 007A
ENCODING 122
SWIDTH 400 0
DWIDTH 15 0
BBX 15 21 0 0
BITMAP
7FFC
7FFC
7FFC
7FFC
007C
0078
00F0
01F0
01E0
03C0
07C0
0F80
0F00
1F00
3E00
3C00
7800
FFFE
FFFE
FFFE
FFFE
ENDCHAR
STARTCHAR 007B
ENCODING 123
SWIDTH 320 0
DWIDTH 12 0
BBX 12 35 1 -7
BITMAP
01F0
07F0
07F0
0F80
0F00
0F00
0F00
0F00
0F00
0F00
0F00
0F00
0F00
0F00
3F00
FE00
F800
FC00
FE00
3F00
1F00
0F00
0F00
0F00
0F00
0F00
0F00
0F00
0F00
0F00
0F80
0FF0
07F0
07F0
01F0
ENDCHAR
STARTCHAR 007C
ENCODING 124
SWIDTH 560 0
DWIDTH 21 0
BBX 4 32 8 -4
BITMAP
F0
F0
F0
F0
F0
F0
F0
F0
F0
F0
F0
F0
F0
F0
F0
F0
F0
F0
F0
F0
F0
F0
F0
F0
F0
F0
F0
F0
F0
F0
F0
F0
ENDCHAR
STARTCHAR 007D
ENCODING 125
SWIDTH 320 0
DWIDTH 12 0
BBX 12 35 1 -7
BITMAP
F800
FE00
FE00
1F00
0F00
0F00
0F00
0F00
0F00
0F00
0F00
0F00
0F00
0F80
0FC0
07F0
03F0
01F0
07F0
0FC0
0F80
0F00
0F00
0F00
0F00
0F00
0F00
0F00
0F00
0F00
1F00
FF00
FE00
FE00
F800
ENDCHAR
STARTCHAR 007E
ENCODING 126
SWIDTH 613 0
DWIDTH 23 0
BBX 17 7 3 6
BITMAP
1E0000
7F8180
7FE380
FFFF80
E1FF80
407F00
401C00
ENDCHAR
STARTCHAR 00A1
ENCODING 161
SWIDTH 266 0
DWIDTH 10 0
BBX 4 28 3 -7
BITMAP
F0
F0
F0
F0
00
00
00
F0
F0
F0
F0
F0
F0
F0
F0
F0
F0
F0
F0
F0
F0
F0
F0
F0
F0
F0
F0
F0
ENDCHAR
STARTCHAR 00A2
ENCODING 162
SWIDTH 560 0
DWIDTH 21 0
BBX 19 25 1 3
BITMAP
00F000
00F000
00F000
00F000
07FE00
0FFF00
3FFF80
3F9FC0
7C07C0
7803E0
F80000
F00000
F00000
F00000
F00000
780000
7C03E0
7E07C0
3FFF80
1FFF00
07FE00
00F000
00F000
00F000
00F000
ENDCHAR
STARTCHAR 00A3
ENCODING 163
SWIDTH 560 0
DWIDTH 21 0
BBX 21 28 0 0
BITMAP
01F800
07FF00
1FFF80
1FFFC0
3E07E0
3C03E0
7801F0
780000
780000
780000
780000
3C0000
FFFE00
FFFE00
FFFE00
FFFE00
07C000
03C000
01E078
01E078
01E078
01E078
01E0F8
01E1F0
3FFFF0
3FFFE0
3FFFC0
3FFF00
ENDCHAR
STARTCHAR 00A4
ENCODING 164
SWIDTH 560 0
DWIDTH 21 0
BBX 19 19 1 3
BITMAP
6000C0
F1F1E0
FFFFE0
7FFFC0
3FFF80
3E1F80
3C0780
7803C0
7803C0
7803C0
7803C0
7C03C0
3C0780
3F0F80
3FFF80
7FFFC0
FFFFE0
F1F1E0
6000C0
ENDCHAR
STARTCHAR 00A5
ENCODING 165
SWIDTH 560 0
DWIDTH 21 0
BBX 20 28 0 0
BITMAP
F000F0
F801F0
7801E0
3C03C0
3C03C0
1E0780
1E0780
0F0F00
079E00
FF9FF0
FFFFF0
FFFFF0
FFFFF0
01F800
00F000
00F000
FFFFF0
FFFFF0
FFFFF0
FFFFF0
00F000
00F000
00F000
00F000
00F000
00F000
00F000
00F000
ENDCHAR
STARTCHAR 00A6
ENCODING 166
SWIDTH 560 0
DWIDTH 21 0
BBX 4 32 8 -4
BITMAP
F0
F0
F0
F0
F0
F0
F0
F0
F0
F0
F0
F0
F0
00
00
00
00
00
00
F0
F0
F0
F0
F0
F0
F0
F0
F0
F0
F0
F0
F0
ENDCHAR
STARTCHAR 00A7
ENCODING 167
SWIDTH 560 0
DWIDTH 21 0
BBX 18 36 2 -8
BITMAP
03F000
07FC00
0FFE00
1FFE00
3E1F00
3C0F00
3C0F00
3C0000
3E0000
1F0000
1FC000
3FF000
7FFC00
78FF00
F03F80
F01F80
F007C0
F803C0
FC03C0
7F03C0
3F87C0
1FE780
07FF00
01FE00
007F00
001F00
000F80
000780
780780
780780
7C0F80
3E1F00
3FFF00
1FFE00
0FFC00
03F000
ENDCHAR
STARTCHAR 00A8
ENCODING 168
SWIDTH 560 0
DWIDTH 21 0
BBX 9 5 6 24
BITMAP
F780
F780
F780
F780
F780
ENDCHAR
STARTCHAR 00A9
ENCODING 169
SWIDTH 800 0
DWIDTH 30 0
BBX 28 28 1 0
BITMAP
003FC000
00FFF000
03FFFC00
07C03E00
0F000F00
1E0F0780
3C3FE3C0
387FF1C0
70F0F0E0
71E038E0
F1C038F0
E3800070
E3800070
E3800070
E3800070
E3800070
E3800070
F1C038F0
71E038E0
78F0F0E0
387FF1C0
3C3FC3C0
1E0F0780
0F000F00
07C03E00
03FFFC00
00FFF000
003FC000
ENDCHAR
STARTCHAR 00AA
ENCODING 170
SWIDTH 373 0
DWIDTH 14 0
BBX 13 11 0 17
BITMAP
0FB8
3FF8
7FF8
F078
E038
E038
E038
F078
7FF8
3FF8
0FB8
ENDCHAR
STARTCHAR 00AB
ENCODING 171
SWIDTH 373 0
DWIDTH 14 0
BBX 12 13 1 5
BITMAP
0810
1830
3870
78F0
F1E0
E1C0
E1C0
F1E0
78F0
78F0
3870
1830
0810
ENDCHAR
STARTCHAR 00AC
ENCODING 172
SWIDTH 613 0
DWIDTH 23 0
BBX 19 12 2 4
BITMAP
FFFFE0
FFFFE0
FFFFE0
FFFFE0
0001E0
0001E0
0001E0
0001E0
0001E0
0001E0
0001E0
0001E0
ENDCHAR
STARTCHAR 00AE
ENCODING 174
SWIDTH 800 0
DWIDTH 30 0
BBX 28 28 1 0
BITMAP
001FC000
00FFF800
03FFFC00
07C03E00
0F000F00
1E000780
3CFFC3C0
38FFF1E0
70FFF0E0
70E078E0
F0E038F0
E0E03870
E0E07070
E0FFF070
E0FFC070
E0FFF070
E0E07870
F0E038F0
70E038E0
78E038E0
38E039C0
3CE03BC0
1E000780
0F800F00
07E03E00
03FFFC00
00FFF000
001FC000
ENDCHAR
STARTCHAR 00AF
ENCODING 175
SWIDTH 560 0
DWIDTH 21 0
BBX 13 3 4 25
BITMAP
FFF8
FFF8
FFF8
ENDCHAR
STARTCHAR 00B0
ENCODING 176
SWIDTH 400 0
DWIDTH 15 0
BBX 11 11 2 16
BITMAP
1F00
3F80
71C0
E0E0
C060
C060
C060
E0E0
71C0
3F80
1F00
ENDCHAR
STARTCHAR 00B1
ENCODING 177
SWIDTH 613 0
DWIDTH 23 0
BBX 20 23 1 -1
BITMAP
00F000
00F000
00F000
00F000
00F000
00F000
FFFFF0
FFFFF0
FFFFF0
FFFFF0
00F000
00F000
00F000
00F000
00F000
00F000
000000
000000
000000
FFFFF0
FFFFF0
FFFFF0
FFFFF0
ENDCHAR
STARTCHAR 00B2
ENCODING 178
SWIDTH 346 0
DWIDTH 13 0
BBX 11 17 1 11
BITMAP
1F00
3F80
7FC0
F1E0
E0E0
E0E0
00E0
01E0
03C0
0780
0F00
1E00
3C00
7800
FFE0
FFE0
FFE0
ENDCHAR
STARTCHAR 00B3
ENCODING 179
SWIDTH 346 0
DWIDTH 13 0
BBX 11 17 1 11
BITMAP
1F00
3F80
7FC0
71C0
71C0
01C0
0FC0
0F80
0FC0
01E0
00E0
E0E0
E0E0
F1E0
7FC0
3F80
1F00
ENDCHAR
STARTCHAR 00B4
ENCODING 180
SWIDTH 560 0
DWIDTH 21 0
BBX 10 8 6 23
BITMAP
0080
0380
0FC0
1F80
7F00
FC00
7000
4000
ENDCHAR
STARTCHAR 00B5
ENCODING 181
SWIDTH 613 0
DWIDTH 23 0
BBX 18 28 3 -7
BITMAP
F003C0
F003C0
F003C0
F003C0
F003C0
F003C0
F003C0
F003C0
F003C0
F003C0
F003C0
F003C0
F003C0
F003C0
F807C0
F807C0
FC0FC0
FFFFC0
FFFFC0
FFFBC0
F3E3C0
F00000
F00000
F00000
F00000
F00000
F00000
F00000
ENDCHAR
STARTCHAR 00B6
ENCODING 182
SWIDTH 640 0
DWIDTH 24 0
BBX 20 35 0 -7
BITMAP
07FFF0
1FFFF0
3FFFF0
7FFFF0
FFF0F0
FFF0F0
FFF0F0
FFF0F0
FFF0F0
FFF0F0
FFF0F0
7FF0F0
3FF0F0
1FF0F0
00F0F0
00F0F0
00F0F0
00F0F0
00F0F0
00F0F0
00F0F0
00F0F0
00F0F0
00F0F0
00F0F0
00F0F0
00F0F0
00F0F0
00F0F0
00F0F0
00F0F0
00F0F0
00F0F0
00F0F0
00F0F0
ENDCHAR
STARTCHAR 00B7
ENCODING 183
SWIDTH 266 0
DWIDTH 10 0
BBX 4 4 3 8
BITMAP
F0
F0
F0
F0
ENDCHAR
STARTCHAR 00B8
ENCODING 184
SWIDTH 560 0
DWIDTH 21 0
BBX 7 9 7 -8
BITMAP
30
60
78
7E
06
06
C6
FC
78
ENDCHAR
STARTCHAR 00B9
ENCODING 185
SWIDTH 346 0
DWIDTH 13 0
BBX 5 17 4 11
BITMAP
F8
F8
F8
38
38
38
38
38
38
38
38
38
38
38
38
38
38
ENDCHAR
STARTCHAR 00BA
ENCODING 186
SWIDTH 373 0
DWIDTH 14 0
BBX 12 11 1 17
BITMAP
0F80
3FC0
7FE0
F0F0
E070
E070
E070
F0F0
7FE0
3FC0
1F00
ENDCHAR
STARTCHAR 00BB
ENCODING 187
SWIDTH 373 0
DWIDTH 14 0
BBX 12 14 1 5
BITMAP
8100
C180
E1C0
F1E0
F9F0
78F0
3870
3870
78F0
F1E0
E1C0
C180
8100
8100
ENDCHAR
STARTCHAR 00BC
ENCODING 188
SWIDTH 693 0
DWIDTH 26 0
BBX 25 28 1 0
BITMAP
F800E000
F800C000
F801C000
38018000
38038000
38038000
38070000
38070000
380E0000
380E0000
380C0000
381C0E00
38181E00
38381E00
38383E00
38707E00
38707E00
00E0EE00
00E1CE00
00C1CE00
01C38E00
01870E00
03870E00
038FFF80
070FFF80
07000E00
06000E00
0E000E00
ENDCHAR
STARTCHAR 00BD
ENCODING 189
SWIDTH 720 0
DWIDTH 27 0
BBX 25 28 1 0
BITMAP
F801C000
F8038000
F8038000
38030000
38070000
38070000
380E0000
380E0000
381C0000
381C0000
38180000
38387C00
3830FE00
3871FF00
3873C780
38E38380
38E38380
01C00380
01C00780
01800F00
03801E00
03003C00
07007800
0700F000
0E01E000
0E03FF80
0C03FF80
1C03FF80
ENDCHAR
STARTCHAR 00BE
ENCODING 190
SWIDTH 773 0
DWIDTH 29 0
BBX 28 28 1 0
BITMAP
1F001C00
3F801800
7FC03800
71C03000
71C07000
01C06000
0FC0E000
0F80E000
0FC1C000
01E1C000
00E18000
E0E381C0
E0E303C0
F1E703C0
7FC707C0
3F8E0FC0
1F0E0DC0
001C1DC0
001C39C0
001839C0
003871C0
0030E1C0
0070E1C0
0070FFF0
00E0FFF0
00E001C0
01C001C0
01C001C0
ENDCHAR
STARTCHAR 00BF
ENCODING 191
SWIDTH 506 0
DWIDTH 19 0
BBX 16 29 2 -8
BITMAP
03C0
03C0
03C0
03C0
0000
0000
0000
03C0
03C0
03C0
0780
0780
0F80
1F00
3E00
7E00
7C00
F800
F000
F000
F00F
F00F
F80F
781F
7C3E
3FFE
3FFC
1FF8
07E0
ENDCHAR
STARTCHAR 00C0
ENCODING 192
SWIDTH 693 0
DWIDTH 26 0
BBX 25 37 0 0
BITMAP
00800000
00E00000
01F80000
00FE0000
003F0000
001F0000
00070000
00000000
00000000
003E0000
003E0000
003E0000
007F0000
007F0000
00770000
00F78000
00F78000
01E3C000
01E3C000
01E3C000
03C1E000
03C1E000
03C1E000
0780F000
0780F000
0FFFF800
0FFFF800
0FFFF800
1FFFFC00
1E003C00
3E003E00
3E003E00
3C001E00
7C001F00
78000F00
78000F00
F8000F80
ENDCHAR
STARTCHAR 00C1
ENCODING 193
SWIDTH 693 0
DWIDTH 26 0
BBX 25 37 0 0
BITMAP
00008000
00038000
000FC000
001F8000
007F0000
00FC0000
00700000
00600000
00000000
003C0000
003E0000
003E0000
007F0000
007F0000
007F0000
00F78000
00F78000
01E78000
01E3C000
01E3C000
03C3E000
03C1E000
07C1E000
0781F000
0780F000
0FFFF800
0FFFF800
0FFFF800
1FFFFC00
1E007C00
3E003E00
3C003E00
3C001E00
7C001F00
78001F00
78000F00
F8000F80
ENDCHAR
STARTCHAR 00C2
ENCODING 194
SWIDTH 693 0
DWIDTH 26 0
BBX 25 35 0 0
BITMAP
003E0000
007F0000
00FF8000
01E7C000
03C3E000
00000000
00000000
003C0000
003E0000
003E0000
007E0000
007F0000
00FF0000
00F78000
00F78000
01E78000
01E3C000
01E3C000
03C3E000
03C1E000
07C1E000
0781F000
0781F000
0FFFF000
0FFFF800
0FFFF800
1FFFFC00
1E007C00
3E003C00
3C003E00
3C003E00
78001F00
78001F00
78001F00
F0000F80
ENDCHAR
STARTCHAR 00C3
ENCODING 195
SWIDTH 693 0
DWIDTH 26 0
BBX 25 34 0 0
BITMAP
01F06000
03FFE000
03FFF000
0107C000
00000000
00000000
001E0000
003E0000
003F0000
007F0000
007F0000
007F8000
00F78000
00F78000
01F3C000
01E3C000
01E1E000
03C1E000
03C1E000
03C0F000
0780F000
0780F000
0FFFF800
0FFFF800
0FFFF800
1FFFFC00
1E003C00
3E001E00
3C001E00
3C001E00
7C000F00
78000F00
78000F00
F8000780
ENDCHAR
STARTCHAR 00C4
ENCODING 196
SWIDTH 693 0
DWIDTH 26 0
BBX 25 35 0 0
BITMAP
00F78000
00F78000
00F78000
00F78000
00F78000
00000000
00000000
001C0000
003C0000
003E0000
003E0000
007F0000
00770000
00F70000
00F78000
00E78000
01E3C000
01E3C000
03C3C000
03C1E000
03C1E000
0781F000
0780F000
07FFF000
0FFFF800
0FFFF800
1FFFFC00
1F007C00
1E003C00
3E003E00
3C001E00
7C001F00
7C001F00
78000F00
F8000F80
ENDCHAR
STARTCHAR 00C5
ENCODING 197
SWIDTH 693 0
DWIDTH 26 0
BBX 25 37 0 1
BITMAP
003C0000
007E0000
00E70000
00C30000
00C30000
00E70000
007E0000
003C0000
00000000
003C0000
003C0000
007E0000
007E0000
007F0000
00FF0000
00F70000
00E78000
01E78000
01E7C000
03E3C000
03C3C000
03C3E000
07C1E000
0781F000
0781F000
0FFFF000
0FFFF800
1FFFF800
1FFFFC00
1E007C00
3E003C00
3C003E00
3C003E00
78001F00
78001F00
78000F00
F0000F80
ENDCHAR
STARTCHAR 00C6
ENCODING 198
SWIDTH 933 0
DWIDTH 35 0
BBX 32 28 0 0
BITMAP
00003FFF
00003FFF
00007FFF
0000FFFF
0000FE00
0001FE00
0003FE00
0003DE00
00079E00
000F9E00
000F1E00
001E1E00
003E1FFF
003C1FFF
00781FFF
00F81FFF
00FFFE00
01FFFE00
03FFFE00
03FFFE00
07C01E00
0F801E00
0F001E00
1F001E00
3E001FFF
3C001FFF
7C001FFF
F8001FFF
ENDCHAR
STARTCHAR 00C7
ENCODING 199
SWIDTH 773 0
DWIDTH 29 0
BBX 27 37 1 -9
BITMAP
001FE000
00FFFC00
03FFFE00
07FFFF80
0FE01FC0
1F8007C0
3E0003E0
3C000000
7C000000
78000000
F8000000
F0000000
F0000000
F0000000
F0000000
F0000000
F0000000
78000000
78000000
7C000000
3E000000
3F0003E0
1F8007C0
0FE01F80
07FFFF00
03FFFE00
00FFF800
001FE000
000E0000
000C0000
000F0000
000FC000
0000C000
0000C000
0018C000
001F8000
000F0000
ENDCHAR
STARTCHAR 00C8
ENCODING 200
SWIDTH 533 0
DWIDTH 20 0
BBX 15 37 2 1
BITMAP
1000
1C00
3F00
1FC0
07E0
03E0
00C0
0000
0000
FFFE
FFFE
FFFE
FFFE
F000
F000
F000
F000
F000
F000
F000
F000
FFFE
FFFE
FFFE
FFFE
F000
F000
F000
F000
F000
F000
F000
F000
FFFE
FFFE
FFFE
FFFE
ENDCHAR
STARTCHAR 00C9
ENCODING 201
SWIDTH 533 0
DWIDTH 20 0
BBX 15 37 2 0
BITMAP
0010
0070
01F8
03F0
0FE0
1F80
0E00
0800
0000
FFFE
FFFE
FFFE
FFFE
F000
F000
F000
F000
F000
F000
F000
F000
FFFE
FFFE
FFFE
FFFE
F000
F000
F000
F000
F000
F000
F000
F000
FFFE
FFFE
FFFE
FFFE
ENDCHAR
STARTCHAR 00CA
ENCODING 202
SWIDTH 533 0
DWIDTH 20 0
BBX 15 35 2 0
BITMAP
0780
0FC0
1FE0
3CF8
787C
0000
0000
FFFE
FFFE
FFFE
FFFE
F000
F000
F000
F000
F000
F000
F000
F000
FFFE
FFFE
FFFE
FFFE
F000
F000
F000
F000
F000
F000
F000
F000
FFFE
FFFE
FFFE
FFFE
ENDCHAR
STARTCHAR 00CB
ENCODING 203
SWIDTH 533 0
DWIDTH 20 0
BBX 16 35 2 0
BITMAP
3C78
3C78
3C78
3C78
3C78
0000
0000
FFFF
FFFF
FFFF
FFFF
F000
F000
F000
F000
F000
F000
F000
F000
FFFF
FFFF
FFFF
FFFF
F000
F000
F000
F000
F000
F000
F000
F000
FFFF
FFFF
FFFF
FFFF
ENDCHAR
STARTCHAR 00CC
ENCODING 204
SWIDTH 266 0
DWIDTH 10 0
BBX 10 37 -2 1
BITMAP
6000
7000
FC00
7F00
1FC0
0780
0380
0000
0000
0780
0780
0780
0780
0780
0780
0780
0780
0780
0780
0780
0780
0780
0780
0780
0780
0780
0780
0780
0780
0780
0780
0780
0780
0780
0780
0780
0780
ENDCHAR
STARTCHAR 00CD
ENCODING 205
SWIDTH 266 0
DWIDTH 10 0
BBX 10 37 2 0
BITMAP
0080
0380
0FC0
1F80
7F00
FC00
7000
2000
0000
7800
7800
7800
7800
7800
7800
7800
7800
7800
7800
7800
7800
7800
7800
7800
7800
7800
7800
7800
7800
7800
7800
7800
7800
7800
7800
7800
7800
ENDCHAR
STARTCHAR 00CE
ENCODING 206
SWIDTH 266 0
DWIDTH 10 0
BBX 13 35 -2 0
BITMAP
0780
0FC0
1FE0
3CF0
F878
0000
0000
0780
0780
0780
0780
0780
0780
0780
0780
0780
0780
0780
0780
0780
0780
0780
0780
0780
0780
0780
0780
0780
0780
0780
0780
0780
0780
0780
0780
ENDCHAR
STARTCHAR 00CF
ENCODING 207
SWIDTH 266 0
DWIDTH 10 0
BBX 10 35 0 0
BITMAP
F3C0
F3C0
F3C0
F3C0
F3C0
0000
0000
1E00
1E00
1E00
1E00
1E00
1E00
1E00
1E00
1E00
1E00
1E00
1E00
1E00
1E00
1E00
1E00
1E00
1E00
1E00
1E00
1E00
1E00
1E00
1E00
1E00
1E00
1E00
1E00
ENDCHAR
STARTCHAR 00D0
ENCODING 208
SWIDTH 720 0
DWIDTH 27 0
BBX 26 28 0 0
BITMAP
3FFF0000
3FFFE000
3FFFF000
3FFFFC00
3C00FE00
3C003E00
3C001F00
3C000F00
3C000F80
3C000780
3C0007C0
3C0003C0
FFFC03C0
FFFC03C0
FFFC03C0
FFFC03C0
3C0003C0
3C0003C0
3C000780
3C000780
3C000F80
3C001F00
3C003F00
3C00FE00
3FFFFC00
3FFFF000
3FFFE000
3FFF0000
ENDCHAR
STARTCHAR 00D1
ENCODING 209
SWIDTH 746 0
DWIDTH 28 0
BBX 22 34 3 0
BITMAP
03E180
0FFF80
07FFC0
021F00
000000
000000
F8003C
F8003C
FC003C
FE003C
FE003C
FF003C
FF803C
F7803C
F7C03C
F3C03C
F1E03C
F1F03C
F0F03C
F0783C
F07C3C
F03C3C
F01E3C
F01F3C
F00F3C
F00FBC
F007FC
F003FC
F003FC
F001FC
F000FC
F000FC
F0007C
F0003C
ENDCHAR
STARTCHAR 00D2
ENCODING 210
SWIDTH 853 0
DWIDTH 32 0
BBX 29 36 1 1
BITMAP
00300000
007C0000
007F0000
001FC000
0007E000
0003C000
0000C000
00000000
001FE000
00FFF800
03FFFE00
07FFFF00
0FE01F80
1F8007C0
3E0003E0
3C0001E0
7C0001F0
780000F0
780000F8
F0000078
F0000078
F0000078
F0000078
F0000078
F0000078
F80000F8
780000F0
7C0001F0
3C0001E0
3E0003E0
1F8007C0
0FE01F80
07FFFF00
03FFFE00
00FFF800
001FC000
ENDCHAR
STARTCHAR 00D3
ENCODING 211
SWIDTH 853 0
DWIDTH 32 0
BBX 29 37 1 0
BITMAP
00003000
00007000
0001F800
0007F000
001FE000
001F8000
001E0000
00080000
00000000
001FE000
00FFF800
03FFFE00
07FFFF00
0FE01F80
1F8007C0
3E0003E0
3C0001E0
7C0001F0
780000F0
780000F8
F0000078
F0000078
F0000078
F0000078
F0000078
F0000078
F80000F8
780000F0
7C0001F0
3C0001E0
3E0003E0
1F8007C0
0FE01F80
07FFFF00
03FFFE00
00FFF800
001FE000
ENDCHAR
STARTCHAR 00D4
ENCODING 212
SWIDTH 853 0
DWIDTH 32 0
BBX 29 35 1 0
BITMAP
00078000
000FC000
001FE000
003CF000
00F87800
00000000
00000000
001FE000
00FFF800
03FFFE00
07FFFF00
0FE01F80
1F8007C0
3E0003E0
3C0001E0
7C0001F0
780000F0
780000F8
F0000078
F0000078
F0000078
F0000078
F0000078
F0000078
F80000F8
780000F0
7C0000F0
3E0001E0
3E0003E0
1F8007C0
0FE01F80
07FFFF00
03FFFE00
00FFF800
001FE000
ENDCHAR
STARTCHAR 00D5
ENCODING 213
SWIDTH 853 0
DWIDTH 32 0
BBX 29 34 1 0
BITMAP
007E1800
00FFF800
00FFFC00
0041F000
00000000
00000000
001FE000
00FFF800
03FFFE00
07FFFF00
0FE01F80
1F8007C0
3E0003E0
3C0001E0
7C0001F0
780000F0
780000F8
F0000078
F0000078
F0000078
F0000078
F0000078
F0000078
F80000F8
780000F0
7C0001F0
3C0001E0
3E0003E0
1F8007C0
0FE01F80
07FFFF00
03FFFE00
00FFF800
001FC000
ENDCHAR
STARTCHAR 00D6
ENCODING 214
SWIDTH 853 0
DWIDTH 32 0
BBX 29 35 1 0
BITMAP
003CF000
003CF000
003CF000
003CF000
003CF000
00000000
00000000
001FE000
00FFF800
03FFFE00
07FFFF00
0FE01F80
1F8007C0
3E0003E0
3C0001E0
7C0001F0
780000F0
780000F8
F0000078
F0000078
F0000078
F0000078
F0000078
F0000078
F80000F8
780000F0
7C0000F0
3E0001E0
3E0003E0
1F8007C0
0FE01F80
07FFFF00
03FFFE00
00FFF800
001FE000
ENDCHAR
STARTCHAR 00D7
ENCODING 215
SWIDTH 613 0
DWIDTH 23 0
BBX 18 18 2 1
BITMAP
200100
700380
F807C0
7C0F80
3E1F00
1F3E00
0FFC00
07F800
03F000
03F000
07F800
0FFC00
1F3E00
3E1F00
7C0F80
F807C0
700380
200100
ENDCHAR
STARTCHAR 00D8
ENCODING 216
SWIDTH 853 0
DWIDTH 32 0
BBX 29 32 1 -2
BITMAP
00000080
000001C0
001FC1E0
00FFFBC0
03FFFFC0
07FFFF80
0FC01F80
1F001FC0
3E003FE0
3C007DE0
7C0079F0
7800F0F0
7801F0F8
F003E078
F007C078
F0078078
F00F8078
F01F0078
F03E0078
F83C00F8
787C00F0
7CF801F0
3DF001E0
3FE003E0
1FE007C0
0FC01F80
0FFFFF00
0FFFFE00
1EFFF800
3E1FC000
1C000000
08000000
ENDCHAR
STARTCHAR 00D9
ENCODING 217
SWIDTH 640 0
DWIDTH 24 0
BBX 18 37 3 1
BITMAP
080000
0E0000
1F8000
0FC000
03F000
01F000
006000
002000
000000
F003C0
F003C0
F003C0
F003C0
F003C0
F003C0
F003C0
F003C0
F003C0
F003C0
F003C0
F003C0
F003C0
F003C0
F003C0
F003C0
F003C0
F003C0
F003C0
F003C0
F003C0
F807C0
780780
7C0F80
3FFF00
1FFE00
0FFC00
03F000
ENDCHAR
STARTCHAR 00DA
ENCODING 218
SWIDTH 640 0
DWIDTH 24 0
BBX 19 37 3 0
BITMAP
000200
000E00
003F00
007E00
01FC00
03F000
01C000
018000
000000
F001E0
F001E0
F001E0
F001E0
F001E0
F001E0
F001E0
F001E0
F001E0
F001E0
F001E0
F001E0
F001E0
F001E0
F001E0
F001E0
F001E0
F001E0
F001E0
F001E0
F001E0
F803E0
7803C0
7E07C0
3FFF80
1FFF00
0FFE00
03F800
ENDCHAR
STARTCHAR 00DB
ENCODING 219
SWIDTH 640 0
DWIDTH 24 0
BBX 18 35 3 0
BITMAP
01E000
03F000
07F800
0F3C00
1E1E00
000000
000000
F003C0
F003C0
F003C0
F003C0
F003C0
F003C0
F003C0
F003C0
F003C0
F003C0
F003C0
F003C0
F003C0
F003C0
F003C0
F003C0
F003C0
F003C0
F003C0
F003C0
F003C0
F807C0
780780
7C0F80
3FFF00
1FFE00
0FFC00
03F000
ENDCHAR
STARTCHAR 00DC
ENCODING 220
SWIDTH 640 0
DWIDTH 24 0
BBX 18 35 3 0
BITMAP
0F3C00
0F3C00
0F3C00
0F3C00
0F3C00
000000
000000
F003C0
F003C0
F003C0
F003C0
F003C0
F003C0
F003C0
F003C0
F003C0
F003C0
F003C0
F003C0
F003C0
F003C0
F003C0
F003C0
F003C0
F003C0
F003C0
F003C0
F003C0
F807C0
780780
7C0F80
3FFF00
1FFE00
0FFC00
03F000
ENDCHAR
STARTCHAR 00DD
ENCODING 221
SWIDTH 586 0
DWIDTH 22 0
BBX 21 37 1 0
BITMAP
000300
000700
001F80
007F00
00FE00
01F800
01E000
008000
000000
F000F8
F800F0
7801F0
7C01E0
3C03E0
3C03C0
3E07C0
1E0780
1F0F80
0F0F00
0F9F00
079E00
07FE00
03FC00
03FC00
01F800
01F800
00F000
00F000
00F000
00F000
00F000
00F000
00F000
00F000
00F000
00F000
00F000
ENDCHAR
STARTCHAR 00DE
ENCODING 222
SWIDTH 560 0
DWIDTH 21 0
BBX 18 28 2 0
BITMAP
F00000
F00000
F00000
F00000
F00000
FFF000
FFFC00
FFFF00
FFFF80
F01F80
F007C0
F003C0
F003C0
F003C0
F003C0
F003C0
F007C0
F01F80
FFFF80
FFFF00
FFFC00
FFF000
F00000
F00000
F00000
F00000
F00000
F00000
ENDCHAR
STARTCHAR 00DF
ENCODING 223
SWIDTH 640 0
DWIDTH 24 0
BBX 21 28 2 0
BITMAP
03E000
1FFC00
3FFE00
7FFF00
781F00
F80F80
F00780
F00780
F00780
F00F80
F01F00
F0FE00
F0FF80
F0FFE0
F0FFE0
F003F0
F000F0
F000F8
F00078
F00078
F00078
FF0078
FF00F8
FF81F0
F7FFE0
F7FFE0
F1FF80
F07E00
ENDCHAR
STARTCHAR 00E0
ENCODING 224
SWIDTH 693 0
DWIDTH 26 0
BBX 23 30 1 1
BITMAP
018000
01E000
03F800
00FE00
003F00
001F00
000600
000000
000000
00FE1E
07FF9E
0FFFDE
1FFFFE
3F01FE
7C007E
78003E
78003E
F0001E
F0001E
F0001E
F0001E
F0001E
F8003E
78003E
7C007E
3F01FE
1FFFFE
0FFFDE
07FF9E
00FE1E
ENDCHAR
STARTCHAR 00E1
ENCODING 225
SWIDTH 693 0
DWIDTH 26 0
BBX 23 31 1 0
BITMAP
000180
000380
000FC0
003F80
007F00
00FC00
00F000
004000
000000
000000
00FE1E
07FF9E
0FFFDE
1FFFFE
3F01FE
7C007E
78003E
78003E
F0001E
F0001E
F0001E
F0001E
F0001E
F8003E
78003E
7C007E
3F01FE
1FFFFE
0FFFDE
07FF9E
00FE1E
ENDCHAR
STARTCHAR 00E2
ENCODING 226
SWIDTH 693 0
DWIDTH 26 0
BBX 23 29 1 0
BITMAP
003E00
007F00
00FF80
01E7C0
03C3E0
000000
000000
000000
00FE1E
03FF9E
0FFFDE
1FFFFE
3F01FE
7C007E
78003E
78003E
F0001E
F0001E
F0001E
F0001E
F0001E
F8003E
7C003E
7C007E
3F01FE
1FFFFE
0FFFDE
07FF9E
00FE1E
ENDCHAR
STARTCHAR 00E3
ENCODING 227
SWIDTH 693 0
DWIDTH 26 0
BBX 23 28 1 0
BITMAP
01F040
07FFE0
03FFE0
030F80
000000
000000
000000
00FE1E
07FF9E
0FFFDE
1FFFFE
3F01FE
7C007E
78003E
78003E
F0001E
F0001E
F0001E
F0001E
F0001E
F8003E
78003E
7C007E
3F01FE
1FFFFE
0FFFDE
07FF9E
00FE1E
ENDCHAR
STARTCHAR 00E4
ENCODING 228
SWIDTH 693 0
DWIDTH 26 0
BBX 23 29 1 0
BITMAP
01E780
01E780
01E780
01E780
01E780
000000
000000
000000
00FE1E
07FF9E
0FFFDE
1FFFFE
3F01FE
7C007E
78003E
78003E
F0001E
F0001E
F0001E
F0001E
F0001E
F8003E
78003E
7C007E
3F01FE
1FFFFE
0FFFDE
07FF9E
00FE1E
ENDCHAR
STARTCHAR 00E5
ENCODING 229
SWIDTH 693 0
DWIDTH 26 0
BBX 23 31 1 1
BITMAP
003C00
007E00
00E700
00C300
00C300
00E700
007E00
003C00
000000
000000
00FE1E
07FF9E
0FFFDE
1FFFFE
3F01FE
7C007E
78003E
78003E
F0001E
F0001E
F0001E
F0001E
F0001E
F8003E
78003E
7C007E
3F01FE
1FFFFE
0FFFDE
07FF9E
00FE1E
ENDCHAR
STARTCHAR 00E6
ENCODING 230
SWIDTH 1120 0
DWIDTH 42 0
BBX 40 21 1 0
BITMAP
00FE1E1F80
07FF9E7FE0
0FFFFFFFF8
1FFFFFFFFC
3E01FFC07C
7C007F801E
78003F001E
F8003E000F
F0001E000F
F0001FFFFF
F0001FFFFF
F0001FFFFF
F0001E0000
78003F0000
78003F001E
7C007F801E
3F01FFC07C
1FFFFFFFF8
0FFFDFFFF0
03FF9E7FE0
00FE1E1F80
ENDCHAR
STARTCHAR 00E7
ENCODING 231
SWIDTH 640 0
DWIDTH 24 0
BBX 21 30 1 -9
BITMAP
01FC00
07FF00
0FFFC0
1FFFE0
3E03F0
7C01F0
7800F8
F80000
F00000
F00000
F00000
F00000
F00000
F80000
7800F8
7C00F0
3E03F0
1FDFE0
0FFFC0
07FF00
01FC00
006000
004000
00F000
00FC00
000C00
000C00
018C00
00F800
007000
ENDCHAR
STARTCHAR 00E8
ENCODING 232
SWIDTH 640 0
DWIDTH 24 0
BBX 22 30 1 1
BITMAP
030000
03C000
07F000
01FC00
007F00
003E00
000C00
000000
000000
00FE00
07FF80
0FFFE0
1FFFF0
3E01F0
780078
70003C
F0003C
FFFFFC
FFFFFC
FFFFFC
FFFFFC
F00000
780000
780078
3C00F8
3F01F0
1FFFE0
0FFFC0
03FF80
00FC00
ENDCHAR
STARTCHAR 00E9
ENCODING 233
SWIDTH 640 0
DWIDTH 24 0
BBX 22 31 1 0
BITMAP
000300
000700
001F80
007F00
01FE00
01F800
01E000
008000
000000
000000
00FE00
07FF80
0FFFE0
1FFFF0
3E01F0
780078
70003C
F0003C
FFFFFC
FFFFFC
FFFFFC
FFFFFC
F00000
780000
780078
3C00F8
3F01F0
1FFFE0
0FFFC0
07FF80
00FC00
ENDCHAR
STARTCHAR 00EA
ENCODING 234
SWIDTH 640 0
DWIDTH 24 0
BBX 22 29 1 0
BITMAP
00F800
01FC00
03FF00
07CF80
0F87C0
000000
000000
000000
00FE00
07FF80
0FFFE0
1FFFF0
3E01F0
780078
70003C
F0003C
FFFFFC
FFFFFC
FFFFFC
FFFFFC
F00000
780000
780078
3C00F8
3F01F0
1FFFE0
0FFFC0
03FF80
00FC00
ENDCHAR
STARTCHAR 00EB
ENCODING 235
SWIDTH 640 0
DWIDTH 24 0
BBX 22 29 1 0
BITMAP
03CF00
03CF00
03CF00
03CF00
03CF00
000000
000000
000000
00FE00
07FF80
0FFFE0
1FFFF0
3E01F0
780078
70003C
F0003C
FFFFFC
FFFFFC
FFFFFC
FFFFFC
F00000
780000
780078
3C00F8
3F01F0
1FFFE0
0FFFC0
03FF80
00FC00
ENDCHAR
STARTCHAR 00EC
ENCODING 236
SWIDTH 240 0
DWIDTH 9 0
BBX 9 31 -3 0
BITMAP
4000
7000
FC00
7F00
1F80
0F80
0380
0000
0000
0000
0780
0780
0780
0780
0780
0780
0780
0780
0780
0780
0780
0780
0780
0780
0780
0780
0780
0780
0780
0780
0780
ENDCHAR
STARTCHAR 00ED
ENCODING 237
SWIDTH 240 0
DWIDTH 9 0
BBX 10 31 2 0
BITMAP
0080
0380
0FC0
1F80
7F00
FC00
7000
2000
0000
0000
7800
7800
7800
7800
7800
7800
7800
7800
7800
7800
7800
7800
7800
7800
7800
7800
7800
7800
7800
7800
7800
ENDCHAR
STARTCHAR 00EE
ENCODING 238
SWIDTH 240 0
DWIDTH 9 0
BBX 14 29 -3 0
BITMAP
0780
0FC0
1FE0
3CF0
F87C
0000
0000
0000
0780
0780
0780
0780
0780
0780
0780
0780
0780
0780
0780
0780
0780
0780
0780
0780
0780
0780
0780
0780
0780
ENDCHAR
STARTCHAR 00EF
ENCODING 239
SWIDTH 240 0
DWIDTH 9 0
BBX 10 29 0 0
BITMAP
F3C0
F3C0
F3C0
F3C0
F3C0
0000
0000
0000
1E00
1E00
1E00
1E00
1E00
1E00
1E00
1E00
1E00
1E00
1E00
1E00
1E00
1E00
1E00
1E00
1E00
1E00
1E00
1E00
1E00
ENDCHAR
STARTCHAR 00F0
ENCODING 240
SWIDTH 666 0
DWIDTH 25 0
BBX 23 28 1 0
BITMAP
03C1C0
1FFFE0
03FFC0
03FF00
1FFF80
1F0FC0
0803E0
00FDF0
03FFF0
0FFFF8
1FFFFC
3F01FC
7C007C
78003E
78003E
F0001E
F0001E
F0001E
F0001E
F0001E
78003C
78003C
7C007C
3F01F8
1FFFF0
0FFFE0
07FF80
00FE00
ENDCHAR
STARTCHAR 00F1
ENCODING 241
SWIDTH 613 0
DWIDTH 23 0
BBX 18 28 2 0
BITMAP
0F8400
1FFE00
1FFF00
087C00
000000
000000
000000
F1F800
F7FE00
FFFF00
FFFF80
FC0F80
F807C0
F803C0
F003C0
F003C0
F003C0
F003C0
F003C0
F003C0
F003C0
F003C0
F003C0
F003C0
F003C0
F003C0
F003C0
F003C0
ENDCHAR
STARTCHAR 00F2
ENCODING 242
SWIDTH 666 0
DWIDTH 25 0
BBX 23 30 1 1
BITMAP
018000
01E000
03F800
00FC00
007F00
001E00
000600
000000
000000
00FE00
03FFC0
0FFFE0
1FFFF0
3F01F8
7C007C
78003C
F8003E
F0001E
F0001E
F0001E
F0001E
F0001E
78003C
7C003C
7C007C
3F01F8
1FFFF0
0FFFE0
03FFC0
00FE00
ENDCHAR
STARTCHAR 00F3
ENCODING 243
SWIDTH 666 0
DWIDTH 25 0
BBX 23 31 1 0
BITMAP
000100
000700
001F80
003F00
00FE00
01F800
00E000
008000
000000
000000
00FE00
03FF80
0FFFE0
1FFFF0
3F01F8
7C007C
78003C
F8003E
F0001E
F0001E
F0001E
F0001E
F0001E
78003C
78003C
7C007C
3F01F8
1FFFF0
0FFFE0
07FF80
00FE00
ENDCHAR
STARTCHAR 00F4
ENCODING 244
SWIDTH 666 0
DWIDTH 25 0
BBX 23 29 1 0
BITMAP
003C00
007E00
00FF00
01E780
07C3C0
000000
000000
000000
00FE00
03FFC0
0FFFE0
1FFFF0
3F01F8
7C007C
78003C
78003E
F0001E
F0001E
F0001E
F0001E
F0001E
78003E
7C003C
3E007C
3F00F8
1FFFF0
0FFFE0
03FFC0
00FE00
ENDCHAR
STARTCHAR 00F5
ENCODING 245
SWIDTH 666 0
DWIDTH 25 0
BBX 23 28 1 0
BITMAP
03E0C0
0FFFC0
07FFE0
021F80
000000
000000
000000
00FE00
03FFC0
0FFFE0
1FFFF0
3F01F8
7C007C
78003C
F8003E
F0001E
F0001E
F0001E
F0001E
F0001E
78003C
7C003C
7C007C
3F01F8
1FFFF0
0FFFE0
03FFC0
00FE00
ENDCHAR
STARTCHAR 00F6
ENCODING 246
SWIDTH 666 0
DWIDTH 25 0
BBX 23 29 1 0
BITMAP
01E780
01E780
01E780
01E780
01E780
000000
000000
000000
00FE00
03FFC0
0FFFE0
1FFFF0
3F01F8
7C007C
78003C
78003E
F0001E
F0001E
F0001E
F0001E
F0001E
78003E
7C003C
3E007C
3F00F8
1FFFF0
0FFFE0
03FFC0
00FE00
ENDCHAR
STARTCHAR 00F7
ENCODING 247
SWIDTH 613 0
DWIDTH 23 0
BBX 20 19 1 0
BITMAP
00F000
00F000
00F000
00F000
000000
000000
000000
FFFFF0
FFFFF0
FFFFF0
FFFFF0
000000
000000
000000
000000
00F000
00F000
00F000
00F000
ENDCHAR
STARTCHAR 00F8
ENCODING 248
SWIDTH 666 0
DWIDTH 25 0
BBX 23 25 1 -2
BITMAP
000020
000070
00FEF8
03FFF0
0FFFE0
1FFFF0
3F03F8
7C07FC
780FBC
F81F3E
F01E1E
F03C1E
F07C1E
F0781E
F0F01E
79F03C
7BE03C
3FC07C
3F81F8
1FFFF0
0FFFE0
1FFF80
3EFE00
1C0000
080000
ENDCHAR
STARTCHAR 00F9
ENCODING 249
SWIDTH 613 0
DWIDTH 23 0
BBX 19 31 2 0
BITMAP
080000
0E0000
1F8000
0FE000
03F000
01F800
007000
000000
000000
000000
F001E0
F001E0
F001E0
F001E0
F001E0
F001E0
F001E0
F001E0
F001E0
F001E0
F001E0
F001E0
F001E0
F001E0
F803E0
7803E0
7C07E0
3FFFE0
3FFFE0
0FFDE0
03F1E0
ENDCHAR
STARTCHAR 00FA
ENCODING 250
SWIDTH 613 0
DWIDTH 23 0
BBX 19 31 2 0
BITMAP
000200
000E00
003F00
007E00
01FC00
03F000
01C000
018000
000000
000000
F001E0
F001E0
F001E0
F001E0
F001E0
F001E0
F001E0
F001E0
F001E0
F001E0
F001E0
F001E0
F001E0
F001E0
F803E0
7803E0
7C07E0
3FFFE0
3FFFE0
0FFDE0
03F1E0
ENDCHAR
STARTCHAR 00FB
ENCODING 251
SWIDTH 613 0
DWIDTH 23 0
BBX 18 29 2 0
BITMAP
01E000
03F000
07F800
0F3C00
3E1E00
000000
000000
000000
F003C0
F003C0
F003C0
F003C0
F003C0
F003C0
F003C0
F003C0
F003C0
F003C0
F003C0
F003C0
F003C0
F003C0
F807C0
7807C0
7C0FC0
7FFFC0
3FFFC0
1FFBC0
07E3C0
ENDCHAR
STARTCHAR 00FC
ENCODING 252
SWIDTH 613 0
DWIDTH 23 0
BBX 19 29 2 0
BITMAP
079E00
079E00
079E00
079E00
079E00
000000
000000
000000
F001E0
F001E0
F001E0
F001E0
F001E0
F001E0
F001E0
F001E0
F001E0
F001E0
F001E0
F001E0
F001E0
F001E0
F803E0
7803E0
7C07E0
3FFFE0
3FFFE0
0FFDE0
03F1E0
ENDCHAR
STARTCHAR 00FD
ENCODING 253
SWIDTH 586 0
DWIDTH 22 0
BBX 21 38 0 -7
BITMAP
000100
000700
001F80
003F00
00FE00
01F800
00E000
00C000
000000
000000
F000F8
7800F0
7800F0
7C01F0
3C01E0
3C03E0
1E03C0
1E03C0
1E0780
0F0780
0F0780
078F00
078F00
079E00
03DE00
03DE00
01FC00
01FC00
00F800
00F800
00F000
00F000
00F000
01E000
01E000
03C000
03C000
03C000
ENDCHAR
STARTCHAR 00FE
ENCODING 254
SWIDTH 693 0
DWIDTH 26 0
BBX 21 35 3 -7
BITMAP
F00000
F00000
F00000
F00000
F00000
F00000
F00000
F0FC00
F3FF00
F7FFC0
FFFFC0
FE03E0
FC01F0
F800F0
F800F8
F00078
F00078
F00078
F00078
F00078
F800F8
F800F0
FC01F0
FE03E0
FFFFE0
F7FFC0
F3FF00
F0FC00
F00000
F00000
F00000
F00000
F00000
F00000
F00000
ENDCHAR
STARTCHAR 00FF
ENCODING 255
SWIDTH 586 0
DWIDTH 22 0
BBX 21 36 0 -7
BITMAP
03DE00
03DE00
03DE00
03DE00
03DE00
000000
000000
000000
F000F8
7800F0
7800F0
7C01F0
3C01E0
3C03E0
1E03C0
1E03C0
1F07C0
0F0780
0F0780
078F00
078F00
079F00
03DE00
03DE00
01FC00
01FC00
00FC00
00F800
00F800
00F000
00F000
01F000
01E000
03E000
03C000
03C000
ENDCHAR
STARTCHAR 0131
ENCODING 305
SWIDTH 240 0
DWIDTH 9 0
BBX 4 21 3 0
BITMAP
F0
F0
F0
F0
F0
F0
F0
F0
F0
F0
F0
F0
F0
F0
F0
F0
F0
F0
F0
F0
F0
ENDCHAR
STARTCHAR 0141
ENCODING 321
SWIDTH 453 0
DWIDTH 17 0
BBX 17 28 0 0
BITMAP
1E0000
1E0000
1E0000
1E0000
1E0000
1E0000
1E0000
1E3000
1E7000
1FF000
1FF000
1FC000
1F8000
7E0000
FE0000
FE0000
FE0000
DE0000
1E0000
1E0000
1E0000
1E0000
1E0000
1E0000
1FFF80
1FFF80
1FFF80
1FFF80
ENDCHAR
STARTCHAR 0142
ENCODING 322
SWIDTH 293 0
DWIDTH 11 0
BBX 10 28 0 0
BITMAP
1E00
1E00
1E00
1E00
1E00
1E00
1E00
1E00
1E40
1FC0
1FC0
1FC0
1F00
7E00
FE00
FE00
DE00
9E00
1E00
1E00
1E00
1E00
1E00
1E00
1E00
1E00
1E00
1E00
ENDCHAR
STARTCHAR 0152
ENCODING 338
SWIDTH 1093 0
DWIDTH 41 0
BBX 38 28 1 0
BITMAP
001FE07FFC
00FFFC7FFC
03FFFE7FFC
07FFFF7FFC
0FC03FF800
1F800FF800
3E0003F800
3C0001F800
7C0001F800
780000F800
780000F800
F000007800
F000007FFC
F000007FFC
F000007FFC
F000007FFC
F000007800
F800007800
780000F800
7C0000F800
3C0001F800
3E0003F800
1F0007F800
0FC01FF800
07FFFF7FFC
03FFFE7FFC
00FFFC7FFC
001FE07FFC
ENDCHAR
STARTCHAR 0153
ENCODING 339
SWIDTH 1146 0
DWIDTH 43 0
BBX 41 21 1 0
BITMAP
00FE001FC000
03FFC0FFF000
0FFFE1FFF800
1FFFF3FFFC00
3F01FFC03E00
7C007F801F00
78003F000F00
F8003E000780
F0001E000780
F0001FFFFF80
F0001FFFFF80
F0001FFFFF80
F0001E000000
78003F000000
7C003F000F00
3C007F801F00
3F01FFE03E00
1FFFF3FFFC00
0FFFE1FFF800
03FF807FF000
00FE001F8000
ENDCHAR
STARTCHAR 0160
ENCODING 352
SWIDTH 506 0
DWIDTH 19 0
BBX 17 35 1 0
BITMAP
1E1F00
0F3C00
07FC00
03F800
01F000
000000
000000
03F000
0FFC00
1FFE00
3FFF00
3E1F00
7C0F80
780780
780780
780000
7C0000
3E0000
3FC000
1FF800
0FFC00
03FE00
007F00
001F80
000F80
000780
F00780
F00780
F00780
780F80
7C1F00
3FFF00
3FFE00
0FFC00
03F000
ENDCHAR
STARTCHAR 0161
ENCODING 353
SWIDTH 426 0
DWIDTH 16 0
BBX 14 29 1 0
BITMAP
787C
3CF0
1FE0
0FC0
0780
0000
0000
0000
07C0
1FF0
3FF8
3FFC
787C
787C
7800
7C00
3F80
3FE0
0FF0
03F8
00FC
003C
F03C
F03C
F87C
7FF8
3FF8
1FF0
07C0
ENDCHAR
STARTCHAR 0178
ENCODING 376
SWIDTH 586 0
DWIDTH 22 0
BBX 22 35 0 0
BITMAP
03CF00
03CF00
03CF00
03CF00
03CF00
000000
000000
F8007C
780078
7C00F8
3C00F0
3E01F0
1E01E0
1F03E0
0F03C0
0F87C0
078780
07CF80
03CF00
03FF00
01FE00
01FE00
00FC00
00FC00
007800
007800
007800
007800
007800
007800
007800
007800
007800
007800
007800
ENDCHAR
STARTCHAR 017D
ENCODING 381
SWIDTH 453 0
DWIDTH 17 0
BBX 17 35 0 0
BITMAP
1E0F00
0F3E00
07FC00
03F800
01F000
000000
000000
7FFF00
7FFF00
7FFF00
7FFF00
000F00
001E00
003C00
003C00
007800
007800
00F000
01F000
01E000
03E000
03C000
078000
078000
0F0000
1F0000
1E0000
3E0000
3C0000
7C0000
F80000
FFFF80
FFFF80
FFFF80
FFFF80
ENDCHAR
STARTCHAR 017E
ENCODING 382
SWIDTH 400 0
DWIDTH 15 0
BBX 15 29 0 0
BITMAP
3C1E
1E7C
0FF8
07F0
03E0
0000
0000
0000
7FFC
7FFC
7FFC
7FFC
007C
0078
00F0
01F0
01E0
03C0
07C0
0F80
0F00
1F00
3E00
3C00
7800
FFFE
FFFE
FFFE
FFFE
ENDCHAR
STARTCHAR 0192
ENCODING 402
SWIDTH 560 0
DWIDTH 21 0
BBX 19 38 1 -5
BITMAP
0000E0
0003E0
0007E0
000FC0
000F00
001E00
001E00
003C00
003C00
03FF80
03FF80
03FF80
03FF80
007800
007800
007800
007800
007000
007000
00F000
00F000
00F000
00F000
00E000
00E000
01E000
01E000
01E000
01E000
01C000
03C000
03C000
07C000
0F8000
FF8000
FF0000
FE0000
F80000
ENDCHAR
STARTCHAR 02C6
ENCODING 710
SWIDTH 560 0
DWIDTH 21 0
BBX 13 5 3 24
BITMAP
0780
0FC0
1FE0
3CF0
F878
ENDCHAR
STARTCHAR 02C7
ENCODING 711
SWIDTH 560 0
DWIDTH 21 0
BBX 13 5 4 24
BITMAP
F0F8
79E0
3FC0
1F80
0F00
ENDCHAR
STARTCHAR 02D8
ENCODING 728
SWIDTH 560 0
DWIDTH 21 0
BBX 14 5 3 23
BITMAP
E01C
7878
7FF8
1FE0
0300
ENDCHAR
STARTCHAR 02D9
ENCODING 729
SWIDTH 560 0
DWIDTH 21 0
BBX 4 5 8 24
BITMAP
F0
F0
F0
F0
F0
ENDCHAR
STARTCHAR 02DA
ENCODING 730
SWIDTH 560 0
DWIDTH 21 0
BBX 8 8 6 24
BITMAP
3C
7E
E7
C3
C3
E7
7E
3C
ENDCHAR
STARTCHAR 02DB
ENCODING 731
SWIDTH 560 0
DWIDTH 21 0
BBX 7 8 7 -7
BITMAP
38
70
60
E0
E0
F2
7E
3E
ENDCHAR
STARTCHAR 02DC
ENCODING 732
SWIDTH 560 0
DWIDTH 21 0
BBX 14 4 4 23
BITMAP
3E18
FFF8
7FFC
21F0
ENDCHAR
STARTCHAR 02DD
ENCODING 733
SWIDTH 560 0
DWIDTH 21 0
BBX 15 5 4 24
BITMAP
0F3E
1E78
3CF0
79E0
F3C0
ENDCHAR
STARTCHAR 2013
ENCODING 8211
SWIDTH 506 0
DWIDTH 19 0
BBX 16 4 1 9
BITMAP
FFFF
FFFF
FFFF
FFFF
ENDCHAR
STARTCHAR 2014
ENCODING 8212
SWIDTH 1013 0
DWIDTH 38 0
BBX 35 4 1 9
BITMAP
FFFFFFFFE0
FFFFFFFFE0
FFFFFFFFE0
FFFFFFFFE0
ENDCHAR
STARTCHAR 2018
ENCODING 8216
SWIDTH 266 0
DWIDTH 10 0
BBX 4 9 3 18
BITMAP
30
70
E0
E0
F0
F0
F0
F0
F0
ENDCHAR
STARTCHAR 2019
ENCODING 8217
SWIDTH 266 0
DWIDTH 10 0
BBX 4 9 3 18
BITMAP
F0
F0
F0
F0
F0
70
70
E0
C0
ENDCHAR
STARTCHAR 201A
ENCODING 8218
SWIDTH 266 0
DWIDTH 10 0
BBX 4 9 3 -5
BITMAP
F0
F0
F0
F0
70
70
F0
E0
80
ENDCHAR
STARTCHAR 201C
ENCODING 8220
SWIDTH 426 0
DWIDTH 16 0
BBX 10 9 3 18
BITMAP
30C0
71C0
E380
E380
F3C0
F3C0
F3C0
F3C0
F3C0
ENDCHAR
STARTCHAR 201D
ENCODING 8221
SWIDTH 426 0
DWIDTH 16 0
BBX 10 9 3 18
BITMAP
F3C0
F3C0
F3C0
F3C0
F3C0
71C0
71C0
E380
C300
ENDCHAR
STARTCHAR 201E
ENCODING 8222
SWIDTH 426 0
DWIDTH 16 0
BBX 10 9 3 -5
BITMAP
F3C0
F3C0
F3C0
F3C0
71C0
71C0
F3C0
E380
8200
ENDCHAR
STARTCHAR 2020
ENCODING 8224
SWIDTH 560 0
DWIDTH 21 0
BBX 16 37 3 -9
BITMAP
03C0
03C0
03C0
03C0
03C0
03C0
03C0
FFFF
FFFF
FFFF
FFFF
03C0
03C0
03C0
03C0
03C0
03C0
03C0
03C0
03C0
03C0
03C0
03C0
03C0
03C0
03C0
03C0
03C0
03C0
03C0
03C0
03C0
03C0
03C0
03C0
03C0
03C0
ENDCHAR
STARTCHAR 2021
ENCODING 8225
SWIDTH 560 0
DWIDTH 21 0
BBX 16 37 3 -9
BITMAP
03C0
03C0
03C0
03C0
03C0
03C0
FFFF
FFFF
FFFF
FFFF
03C0
03C0
03C0
03C0
03C0
03C0
03C0
03C0
03C0
03C0
03C0
03C0
03C0
FFFF
FFFF
FFFF
FFFF
03C0
03C0
03C0
03C0
03C0
03C0
03C0
03C0
03C0
03C0
ENDCHAR
STARTCHAR 2022
ENCODING 8226
SWIDTH 613 0
DWIDTH 23 0
BBX 11 12 6 8
BITMAP
1F00
3F80
7FC0
7FE0
FFE0
FFE0
FFE0
FFE0
7FE0
7FC0
3F80
1F00
ENDCHAR
STARTCHAR 2026
ENCODING 8230
SWIDTH 1013 0
DWIDTH 38 0
BBX 29 5 4 0
BITMAP
F0078078
F0078078
F0078078
F0078078
F0078078
ENDCHAR
STARTCHAR 2030
ENCODING 8240
SWIDTH 1226 0
DWIDTH 46 0
BBX 43 28 2 0
BITMAP
0FC00E000000
3FF00C000000
7FF818000000
7CF818000000
F87C30000000
F03C30000000
F03C60000000
F03CE0000000
F87CC0000000
7FF9C0000000
3FF180000000
1FE300000000
0FC300000000
000600000000
000E1F007C00
000C7F81FF00
001CFFC3FF80
0019FFE7FFC0
0031E1E7C7C0
0033E1FF83E0
0063C0FF01E0
0063C0FF01E0
00C3C0FF01E0
01C3E1FF83E0
0181F3E7C7C0
0380FFC3FF80
03007F81FF00
06003F007C00
ENDCHAR
STARTCHAR 2039
ENCODING 8249
SWIDTH 213 0
DWIDTH 8 0
BBX 5 13 1 5
BITMAP
08
18
38
78
F0
E0
E0
F0
78
78
38
18
08
ENDCHAR
STARTCHAR 203A
ENCODING 8250
SWIDTH 213 0
DWIDTH 8 0
BBX 5 14 1 5
BITMAP
80
C0
E0
F0
F8
78
38
38
78
F0
E0
C0
80
80
ENDCHAR
STARTCHAR 2044
ENCODING 8260
SWIDTH 186 0
DWIDTH 7 0
BBX 14 28 -4 0
BITMAP
001C
0018
0038
0038
0070
0070
0060
00E0
00C0
01C0
01C0
0180
0380
0300
0700
0700
0E00
0E00
0C00
1C00
1C00
3800
3800
3000
7000
6000
E000
E000
ENDCHAR
STARTCHAR 2122
ENCODING 8482
SWIDTH 986 0
DWIDTH 37 0
BBX 34 17 0 11
BITMAP
FFF8FC0000
FFF8FC0FC0
FFF8FC0FC0
FFF8FE0FC0
0780FE1FC0
0780FE1FC0
0780FF1FC0
0780F73BC0
0780F73BC0
0780F73BC0
0780F3F3C0
0780F3F3C0
0780F3F3C0
0780F1E3C0
0780F1E3C0
0780F1E3C0
0780F1C3C0
ENDCHAR
STARTCHAR 2212
ENCODING 8722
SWIDTH 613 0
DWIDTH 23 0
BBX 19 4 2 8
BITMAP
FFFFE0
FFFFE0
FFFFE0
FFFFE0
ENDCHAR
STARTCHAR FB01
ENCODING 64257
SWIDTH 480 0
DWIDTH 18 0
BBX 15 28 1 0
BITMAP
039E
0F9E
1F9E
3F9E
3E1E
3C00
3C00
FFFE
FFFE
FFFE
FFFE
3C1E
3C1E
3C1E
3C1E
3C1E
3C1E
3C1E
3C1E
3C1E
3C1E
3C1E
3C1E
3C1E
3C1E
3C1E
3C1E
3C1E
ENDCHAR
STARTCHAR FB02
ENCODING 64258
SWIDTH 480 0
DWIDTH 18 0
BBX 15 28 1 0
BITMAP
039E
0F9E
1F9E
3F9E
3E1E
3C1E
3C1E
FFFE
FFFE
FFFE
FFFE
3C1E
3C1E
3C1E
3C1E
3C1E
3C1E
3C1E
3C1E
3C1E
3C1E
3C1E
3C1E
3C1E
3C1E
3C1E
3C1E
3C1E
ENDCHAR
ENDFONT
